<?xml version="1.0" encoding="UTF-8" standalone="no"?>
<svg
   xmlns:dc="http://purl.org/dc/elements/1.1/"
   xmlns:cc="http://creativecommons.org/ns#"
   xmlns:rdf="http://www.w3.org/1999/02/22-rdf-syntax-ns#"
   xmlns:svg="http://www.w3.org/2000/svg"
   xmlns="http://www.w3.org/2000/svg"
   id="svg8"
   version="1.1"
   viewBox="0 0 53.193016 25.994301"
   height="25.994301mm"
   width="53.193016mm">
  <defs
     id="defs2" />
  <metadata
     id="metadata5">
    <rdf:RDF>
      <cc:Work
         rdf:about="">
        <dc:format>image/svg+xml</dc:format>
        <dc:type
           rdf:resource="http://purl.org/dc/dcmitype/StillImage" />
        <dc:title></dc:title>
      </cc:Work>
    </rdf:RDF>
  </metadata>
  <g
     transform="translate(-73.837799,-39.352071)"
     id="layer1">
    <path
       d="m 94.420662,42.420932 c -0.690342,0.858066 -0.45685,0.616009 -1.525939,1.751681 L 90.95044,46.23778 90.331146,43.299246 C 89.9904,41.683157 89.85185,41.290212 89.615365,40.10076 c 0,0 -0.947812,-1.486749 -0.09193,1.807843 0.418989,1.760886 0.59388,3.239254 0.450993,3.80866 -0.153934,0.613261 -0.319848,0.791197 -0.486732,0.521162 -0.139302,-0.225383 -0.500631,-0.315343 -0.802535,-0.19949 -0.720116,0.276336 -1.892962,2.194197 -1.892962,3.095146 0,0.390127 -0.158406,0.709606 -0.352216,0.709606 -0.193767,0 -0.245587,-0.173435 -0.115059,-0.384695 0.151806,-0.245626 0.09054,-0.293348 -0.169613,-0.132566 -0.223681,0.138274 -0.342027,0.423349 -0.263182,0.633581 0.07885,0.210227 0.255829,0.741281 0.393158,1.179446 l 0.249525,0.796047 -0.753809,-0.701824 c -0.414405,-0.386092 -0.881204,-0.622474 -1.037772,-0.52571 -0.156573,0.09683 -0.374987,-0.05835 -0.484768,-0.344417 -0.255863,-0.666749 -0.793446,-0.675328 -0.793446,-0.0131 0,0.298383 0.413621,0.590121 1.004643,0.708312 1.077654,0.215552 1.693023,0.824131 1.050125,1.038447 -0.566729,0.188887 -0.480916,0.740801 0.115063,0.740801 0.278406,0 0.682831,0.411734 0.898722,0.91496 0.215896,0.503226 0.659203,1.308438 0.985138,1.789636 l 0.592643,0.874667 -1.613519,1.509562 c -1.640799,1.534767 -4.124011,2.975659 -6.526263,3.786555 l -0.920163,0.310619 c -4.84e-4,0.02604 -0.0015,0.05193 -0.0024,0.07796 l 0.844118,-0.126062 c 2.298042,-0.342454 5.812683,-2.427878 8.286009,-4.915966 l 2.32119,-2.335493 h -2.4e-5 c 0.07005,-0.04215 0.144385,-0.01 0.220363,-0.01 0.03885,0 -0.03812,-0.0113 -2.4e-5,0 3.39e-4,-0.711784 0.23128,-0.877925 0.51536,-0.877925 0.632815,0 1.544651,-1.258515 1.544651,-2.13209 0,-0.359214 -0.287111,-0.962173 -0.63749,-1.339952 -0.715203,-0.771211 -1.31903,-3.847645 -0.755103,-3.847645 0.190851,0 1.571185,-1.534641 3.067205,-3.410313 0.734302,-0.830766 0.260719,-0.976514 -0.03448,-0.68529 z m -4.665917,4.428332 c 0.165802,0 0.223172,0.301787 0.126722,0.670624 -0.09645,0.368842 -0.332408,0.767718 -0.524414,0.886375 -0.219501,0.135674 -0.266893,5.3e-5 -0.126722,-0.365214 0.122483,-0.31947 0.222894,-0.718336 0.222894,-0.88636 0,-0.168028 0.135661,-0.305425 0.30152,-0.305425 z m -10.9347,13.415759 c -0.0015,4.85e-4 -0.0039,0.0015 -0.005,0.0024 -3.25e-4,0.0064 -9.7e-4,0.01256 -0.0015,0.01886 0.0024,-0.0064 0.005,-0.01407 0.0064,-0.02076 z"
       style="fill:#000000;stroke-width:0.33271343"
       id="path71" />
    <circle
       style="fill:#ffffff;fill-opacity:0;stroke:#000000;stroke-width:0.43032286;stroke-miterlimit:4;stroke-dasharray:none;stroke-opacity:1"
       r="12.704982"
       cy="52.426228"
       cx="86.757942"
       id="path255" />
    <path
       d="m 90.95044,46.23778 c 0,0 -1.194307,0.407684 -1.462762,4.84e-4 -0.139302,-0.225397 -0.500636,-0.315357 -0.802535,-0.199503 -0.720121,0.276335 -1.892962,2.194197 -1.892962,3.095145 0,0.390142 -0.158411,0.709607 -0.352217,0.709607 -0.193765,0 -0.245586,-0.173421 -0.115057,-0.384691 0.151805,-0.24563 0.09054,-0.293339 -0.169614,-0.132566 -0.223686,0.138284 -0.342027,0.423349 -0.263182,0.633591 0.07884,0.210226 0.255824,0.741271 0.393158,1.179431 l 0.249524,0.796047 -0.753808,-0.701823 c -0.414406,-0.386087 -0.881204,-0.622475 -1.037777,-0.52571 -0.156568,0.09671 -0.374987,-0.05834 -0.484762,-0.344403 -0.255864,-0.666764 -0.793447,-0.675328 -0.793447,-0.01295 0,0.298363 0.413616,0.590107 1.004643,0.708313 1.077649,0.215547 1.693022,0.824127 1.050126,1.038426 -0.566731,0.188903 -0.480922,0.740807 0.115057,0.740807 0.278412,0 0.682836,0.411728 0.898722,0.914954 0.215902,0.503241 1.251855,2.18311 1.577786,2.664319 0.563209,0.427825 0.230775,0.454975 2.38886,-1.692824 h 2.4e-5 c 0.07004,-0.04215 0.144336,-0.01 0.220314,-0.01 0.144022,-0.221008 0.306919,-0.717406 0.515337,-0.877921 0.632809,0 1.54465,-1.258533 1.54465,-2.132094 0,-0.359229 -0.287111,-0.962174 -0.637489,-1.339962 -0.715203,-0.771215 -1.31903,-3.84765 -0.755103,-3.84765 z"
       style="fill:#e2002e;fill-opacity:1;stroke-width:0.33271348"
       id="path71-6" />
    <text
       id="text22"
       y="58.374329"
       x="103.65285"
       style="font-style:normal;font-weight:normal;font-size:10.58333302px;line-height:1.25;font-family:sans-serif;letter-spacing:0px;word-spacing:0px;fill:#000000;fill-opacity:1;stroke:none;stroke-width:0.26458332"
       xml:space="preserve"><tspan
         style="font-style:normal;font-variant:normal;font-weight:300;font-stretch:normal;font-size:25.39999962px;font-family:Cutepunk;-inkscape-font-specification:'Cutepunk Light';stroke-width:0.26458332"
         y="58.374329"
         x="103.65285"
         id="tspan20">fatale</tspan></text>
  </g>
</svg>
