<?xml version="1.0" encoding="UTF-8" standalone="no"?>
<!-- Created with Inkscape (http://www.inkscape.org/) -->

<svg
   xmlns:dc="http://purl.org/dc/elements/1.1/"
   xmlns:cc="http://creativecommons.org/ns#"
   xmlns:rdf="http://www.w3.org/1999/02/22-rdf-syntax-ns#"
   xmlns:svg="http://www.w3.org/2000/svg"
   xmlns="http://www.w3.org/2000/svg"
   xmlns:sodipodi="http://sodipodi.sourceforge.net/DTD/sodipodi-0.dtd"
   xmlns:inkscape="http://www.inkscape.org/namespaces/inkscape"
   width="500"
   height="300"
   viewBox="0 0 132.29167 79.375"
   version="1.1"
   id="svg8"
   sodipodi:docname="feature-sources.svg"
   inkscape:version="0.92.4 (unknown)">
  <defs
     id="defs2" />
  <sodipodi:namedview
     id="base"
     pagecolor="#ffffff"
     bordercolor="#666666"
     borderopacity="1.0"
     inkscape:pageopacity="0.0"
     inkscape:pageshadow="2"
     inkscape:zoom="1.2374369"
     inkscape:cx="242.54557"
     inkscape:cy="123.78443"
     inkscape:document-units="mm"
     inkscape:current-layer="layer1"
     showgrid="false"
     units="px"
     inkscape:window-width="1366"
     inkscape:window-height="704"
     inkscape:window-x="0"
     inkscape:window-y="27"
     inkscape:window-maximized="1" />
  <metadata
     id="metadata5">
    <rdf:RDF>
      <cc:Work
         rdf:about="">
        <dc:format>image/svg+xml</dc:format>
        <dc:type
           rdf:resource="http://purl.org/dc/dcmitype/StillImage" />
        <dc:title></dc:title>
      </cc:Work>
    </rdf:RDF>
  </metadata>
  <g
     inkscape:label="Layer 1"
     inkscape:groupmode="layer"
     id="layer1"
     transform="translate(0,-217.625)">
    <path
       style="fill:#000000;stroke-width:0.54332298"
       d="m 96.78735,296.10929 c -1.399677,-0.24287 -3.940918,-1.07514 -5.647196,-1.84949 l -3.102321,-1.40789 -37.979725,0.0311 -37.979725,0.0311 -1.444893,-1.64726 c -3.4837038,-3.97165 -0.474538,-8.48357 5.657984,-8.48357 1.84891,0 1.899508,-0.048 1.026683,-0.97315 -2.27132,-2.40764 -0.313084,-7.20256 3.199681,-7.83475 1.770972,-0.31872 1.825112,-0.39824 1.255927,-1.84481 -0.8078,-2.053 0.228114,-4.13558 2.422058,-4.86927 1.518713,-0.50788 1.607614,-0.6539 0.87382,-1.43522 -1.446119,-1.53985 -1.567097,-3.39686 -0.367337,-5.63868 1.071326,-2.00183 1.128189,-3.05042 1.128189,-20.80444 0,-17.43688 0.06834,-18.75566 1.014457,-19.57704 0.923382,-0.80165 4.459329,-0.88071 39.385828,-0.88071 37.63174,0 38.39277,0.0205 39.48084,1.06429 1.07496,1.03122 1.10946,1.77384 1.10946,23.87824 v 22.81391 l 2.91234,0.36643 c 3.69575,0.46504 5.40862,1.50977 5.40862,3.29886 0,1.0951 0.19763,1.30008 0.97077,1.00677 3.93893,-1.49432 7.0058,-0.18518 7.68339,3.27978 0.45149,2.30862 -0.84575,6.62533 -2.83688,9.43995 -0.7587,1.07251 -1.37944,2.03193 -1.37944,2.13202 0,0.10019 1.12332,0.34364 2.49627,0.54115 1.58824,0.22845 2.4963,0.62943 2.4963,1.10228 0,0.89044 -3.88345,3.15091 -7.90774,4.60287 -1.60023,0.57738 -4.15764,1.61902 -5.68315,2.31476 -3.14022,1.4322 -9.96079,2.07747 -14.19421,1.34291 z m 9.20163,-1.06222 c 2.11534,-0.31606 1.12786,-0.41234 -4.16047,-0.4056 -4.677046,0.006 -6.12158,0.13003 -4.437845,0.38113 3.398785,0.5069 5.332805,0.51239 8.598315,0.0245 z m 5.92818,-2.39354 c 2.04007,-0.41477 4.78598,-1.24955 6.10202,-1.85505 1.96358,-0.90347 2.09427,-1.04364 0.7286,-0.78153 -5.70443,1.09487 -12.38585,1.79463 -17.19663,1.80105 -4.867749,0.007 -14.113674,-1.03171 -17.127427,-1.92322 -0.593455,-0.17555 -0.899285,-0.0889 -0.712047,0.20171 0.331036,0.51383 6.672115,2.54529 9.241147,2.96054 3.424771,0.5536 15.522947,0.29618 18.964337,-0.4035 z m -74.00191,-0.81322 c -28.0659757,-0.30623 -27.247376,-0.19399 -27.247376,-3.73566 0,-3.54168 -0.8185997,-3.42946 27.247376,-3.73568 l 25.359518,-0.27668 -25.240214,-0.10555 c -19.131833,-0.08 -25.453222,0.0515 -26.12038,0.54274 -2.5020368,1.84283 -2.5439643,4.92632 -0.09214,6.77644 1.354327,1.02194 2.203591,1.05193 26.42602,0.93344 l 25.026721,-0.12238 z m 44.458158,-1.06236 c -1.089606,-0.5526 -2.305908,-1.38014 -2.702894,-1.83901 -0.596273,-0.68923 -2.156923,-0.83429 -8.97481,-0.83429 -8.242036,0 -8.25303,9.8e-4 -8.25303,1.22395 0,2.34801 0.724622,2.50249 11.621595,2.47758 l 10.29024,-0.0235 -1.981101,-1.00471 z m -20.595155,-2.80635 -0.167672,-2.79379 -23.576027,-0.12835 c -25.502131,-0.13881 -26.192563,-0.0711 -26.518475,2.60143 -0.384449,3.15258 -0.703196,3.11445 26.032358,3.11445 h 24.397487 z m 32.422714,1.90921 c -0.381378,-0.14763 -1.005447,-0.14763 -1.386827,0 -0.381375,0.14762 -0.06933,0.2684 0.693414,0.2684 0.762753,0 1.074789,-0.12085 0.693413,-0.2684 z m 12.844193,-0.5107 c 4.78626,-1.56446 6.98741,-6.07847 6.98741,-14.32935 0,-2.18071 -0.11265,-3.96494 -0.2503,-3.96494 -0.13767,0 -1.68788,0.3592 -3.44492,0.79824 -5.08138,1.26964 -14.526169,1.03389 -19.464763,-0.48588 -1.240089,-0.38162 -1.248065,-0.34866 -1.235962,5.10633 0.01334,6.02095 0.852804,8.68135 3.467791,10.99031 3.035797,2.68051 9.028464,3.49094 13.940744,1.88529 z m 3.24299,0.5107 c -0.38138,-0.14763 -1.00545,-0.14763 -1.38683,0 -0.38138,0.14762 -0.0693,0.2684 0.69341,0.2684 0.76275,0 1.0748,-0.12085 0.69342,-0.2684 z M 91.717789,288.7225 c 0.540568,-0.3291 0.446974,-0.65548 -0.398445,-1.38944 -1.002031,-0.8699 -1.503968,-0.90235 -5.3877,-0.34823 -2.355494,0.33609 -4.387813,0.71188 -4.516265,0.8351 -0.942566,0.90419 8.885499,1.76521 10.30241,0.90257 z m 28.052781,-0.12753 c 1.17275,-0.31239 1.98092,-0.71313 1.79597,-0.89057 -0.66193,-0.63498 -9.72997,-0.42374 -9.99278,0.23275 -0.13889,0.34695 0.0454,0.74711 0.40975,0.88927 1.21579,0.47447 5.62943,0.34329 7.78706,-0.23145 z m -38.600789,-1.99629 c 1.518469,-0.92477 -5.081231,-2.21916 -11.314743,-2.21916 -6.043495,0 -7.412364,0.36362 -7.412364,1.96896 0,0.53959 1.983428,0.69001 9.014363,0.68365 4.957898,-0.005 9.328635,-0.19954 9.712744,-0.43345 z m 38.005949,-2.2213 c 1.9136,-2.14463 3.73253,-6.46403 3.73253,-8.86364 0,-0.7114 -0.64062,-1.90799 -1.42362,-2.65909 -1.13941,-1.09306 -1.76557,-1.30004 -3.13681,-1.03697 -3.94855,0.75757 -4.37217,2.79875 -0.57083,2.75051 2.37017,-0.03 2.65385,0.0947 2.82291,1.24212 0.28494,1.93377 -1.00323,5.73564 -2.45118,7.23442 -0.83314,0.8624 -1.88789,1.33479 -2.98021,1.33479 -0.92987,0 -1.69068,0.10018 -1.69068,0.22256 0,0.1224 -0.15153,0.60134 -0.33671,1.0643 -0.27272,0.68174 0.0882,0.84175 1.89833,0.84175 1.92156,0 2.50169,-0.29886 4.13627,-2.13075 z m -29.62583,0.77776 c 0.111543,-0.10407 -0.07567,-0.9555 -0.416048,-1.89216 -0.340377,-0.93667 -0.618866,-2.26596 -0.618866,-2.95398 0,-1.22979 -0.0939,-1.25098 -5.547302,-1.25098 h -5.547301 v 2.29222 2.29222 l 3.467063,1.13824 c 2.427149,0.79685 4.215806,1.05208 5.963349,0.85091 1.372956,-0.15803 2.587553,-0.37246 2.699105,-0.47647 z m -13.238976,-3.96851 v -2.12861 H 66.04842 c -9.605324,0 -10.262505,0.0629 -10.262505,0.98183 0,2.53373 2.070937,3.00382 14.006932,3.17945 l 6.518077,0.096 z m 40.465056,1.61197 c 1.15763,-0.59434 2.8039,-4.20285 2.8039,-6.14603 0,-1.02368 -0.28723,-1.3196 -1.28082,-1.3196 -2.20927,0 -3.03342,1.11576 -3.43937,4.65632 -0.39953,3.48479 -0.14013,3.86507 1.91629,2.80931 z m -96.872569,-0.55138 c -2.290708,-0.8854 -3.043515,-3.64944 -1.520798,-5.58389 0.80061,-1.01707 1.667425,-1.07672 19.53659,-1.34432 l 18.698807,-0.28003 -18.469988,-0.11905 -18.469987,-0.11904 -1.361609,1.30619 c -0.748887,0.71839 -1.361611,1.88344 -1.361611,2.58899 0,1.60308 1.988389,4.09835 3.22996,4.05335 0.683398,-0.0248 0.608676,-0.15814 -0.281364,-0.50213 z m 35.327774,-3.45527 v -2.92683 H 37.939552 c -15.311582,0 -17.407797,0.10087 -18.306089,0.8807 -1.295581,1.12476 -1.321003,3.68449 -0.04368,4.39816 0.601384,0.33604 7.567069,0.54858 18.306089,0.55861 l 17.335313,0.0161 z m 33.401663,-5.72062 0.1595,-4.9224 2.77365,-0.65679 c 1.525509,-0.36125 5.345296,-0.81638 8.488412,-1.01144 l 5.71477,-0.35461 -0.16744,-1.38327 -0.16748,-1.38325 H 76.59589 c -27.478484,0 -28.847563,0.0458 -29.033387,0.97146 -0.215941,1.07564 1.325271,2.44432 2.782057,2.47062 1.238431,0.0224 1.841866,1.022 1.066127,1.76616 -0.820353,0.78696 -0.788985,3.72689 0.04832,4.53012 0.366121,0.35122 1.724345,0.6386 3.018277,0.6386 2.702934,0 3.467919,0.72173 2.195055,2.07098 -2.002591,2.12278 -1.554062,2.1862 15.457279,2.1862 h 16.34372 z m -38.394234,-2.27135 v -1.87213 l -13.167527,0.14265 c -12.195125,0.13213 -13.181773,0.21374 -13.360436,1.10502 -0.495386,2.47132 -0.358771,2.49665 13.474399,2.49665 h 13.053564 z m 57.873356,0.45967 c 1.4451,-0.22906 1.88793,-0.47947 1.38684,-0.78424 -0.88696,-0.5394 -13.4762,-0.60307 -15.436525,-0.078 l -1.386826,0.37143 1.66419,0.35655 c 2.203644,0.47217 11.093801,0.55886 13.772321,0.13435 z m -7.94766,-2.16835 c 4.42399,-0.13182 9.10598,-0.005 10.40446,0.28442 1.29847,0.28817 2.48827,0.32618 2.64402,0.0845 0.48511,-0.75299 -0.54807,-1.01882 -6.28799,-1.61784 -7.338657,-0.76584 -17.878895,0.30842 -16.963695,1.72898 0.181663,0.28197 0.74189,0.34322 1.244958,0.13614 0.503067,-0.20708 4.534279,-0.48434 8.958247,-0.6161 z m -62.591728,-2.78235 c -9.780321,-0.26326 -10.793687,-0.37961 -11.510645,-1.32165 -1.084614,-1.4251 -0.983547,-3.1383 0.27306,-4.62868 1.027494,-1.21866 1.372382,-1.26512 11.510647,-1.55034 l 10.451416,-0.29401 -10.081259,-0.1051 -10.081262,-0.1051 -1.706751,1.37767 c -2.041901,1.64822 -2.239522,3.68271 -0.55703,5.73458 l 1.149722,1.40215 10.63829,-0.11047 10.63829,-0.11046 z m 9.337653,-3.48157 v -2.92684 H 37.72072 c -5.273727,0 -9.646729,0.23473 -10.262503,0.55087 -1.321044,0.67822 -1.438282,3.27989 -0.201272,4.46656 0.72381,0.69435 2.465066,0.83624 10.262504,0.83624 h 9.390786 z M 101.82851,243.66996 V 225.31077 H 66.325783 30.823065 v 16.23058 16.2306 h 8.842942 c 8.921705,0 10.804542,0.40373 8.715801,1.86887 -0.504263,0.35373 -0.916842,1.0358 -0.916842,1.51572 0,0.79683 2.360363,0.8726 27.18177,0.8726 h 27.181774 z m 3.88311,-2.02218 c 0,-15.14264 -0.17111,-20.54551 -0.66568,-21.01996 -0.96276,-0.92359 -76.477521,-0.92359 -77.440309,0 -0.491871,0.47186 -0.665676,5.40429 -0.665676,18.89135 v 18.25278 h 1.386825 1.386826 v -16.76276 -16.76274 h 36.612177 36.612197 v 18.89135 18.89134 h 1.38682 1.38682 z"
       id="path150"
       inkscape:connector-curvature="0"
       sodipodi:nodetypes="ccccccscccccsscscsccssccscsccccccccccccccccsssccccccsccsscccccccssccccsccsscccccccscccccccsccccsscccsscccssscscccsscccsccccssccccssscccsccccscccccsccccccccccccsccccsssccccscscccccccccccccccccccscccccccccccsccsccccccccscssccsccscccccccccccs" />
  </g>
</svg>
