<?xml version="1.0" encoding="UTF-8" standalone="no"?>
<!-- Created with Inkscape (http://www.inkscape.org/) -->

<svg
   xmlns:dc="http://purl.org/dc/elements/1.1/"
   xmlns:cc="http://creativecommons.org/ns#"
   xmlns:rdf="http://www.w3.org/1999/02/22-rdf-syntax-ns#"
   xmlns:svg="http://www.w3.org/2000/svg"
   xmlns="http://www.w3.org/2000/svg"
   xmlns:sodipodi="http://sodipodi.sourceforge.net/DTD/sodipodi-0.dtd"
   xmlns:inkscape="http://www.inkscape.org/namespaces/inkscape"
   width="500"
   height="300"
   viewBox="0 0 132.29167 79.375"
   version="1.1"
   id="svg8"
   sodipodi:docname="feature-field-reports.svg"
   inkscape:version="0.92.4 (unknown)">
  <defs
     id="defs2" />
  <sodipodi:namedview
     id="base"
     pagecolor="#ffffff"
     bordercolor="#666666"
     borderopacity="1.0"
     inkscape:pageopacity="0.0"
     inkscape:pageshadow="2"
     inkscape:zoom="0.87681241"
     inkscape:cx="278.49591"
     inkscape:cy="153.08022"
     inkscape:document-units="mm"
     inkscape:current-layer="layer1"
     showgrid="false"
     units="px"
     inkscape:window-width="1366"
     inkscape:window-height="704"
     inkscape:window-x="0"
     inkscape:window-y="27"
     inkscape:window-maximized="1" />
  <metadata
     id="metadata5">
    <rdf:RDF>
      <cc:Work
         rdf:about="">
        <dc:format>image/svg+xml</dc:format>
        <dc:type
           rdf:resource="http://purl.org/dc/dcmitype/StillImage" />
        <dc:title />
      </cc:Work>
    </rdf:RDF>
  </metadata>
  <g
     inkscape:label="Layer 1"
     inkscape:groupmode="layer"
     id="layer1"
     transform="translate(0,-217.625)">
    <path
       style="fill:#000000;stroke-width:0.04694066"
       d="m 109.06731,276.2655 -0.13722,-0.13721 v -1.85777 -1.85776 h -1.77675 c -1.09631,0 -1.82979,-0.0185 -1.91524,-0.0483 -0.28203,-0.0983 -0.29799,-0.18335 -0.29799,-1.58794 0,-0.80272 0.0185,-1.31027 0.0503,-1.38004 0.11127,-0.24422 0.11839,-0.2451 2.09787,-0.2599 l 1.84304,-0.0138 -0.0123,-1.62297 -0.0123,-1.62298 -0.63369,-0.13159 c -1.11498,-0.23153 -1.88421,-0.49442 -2.81646,-0.96255 -1.03648,-0.52045 -1.75648,-1.03744 -2.64466,-1.89892 -1.80265,-1.74849 -2.907431,-3.81602 -3.323481,-6.21964 -0.12413,-0.71713 -0.17142,-2.36966 -0.0898,-3.13642 0.2265,-2.12671 1.044371,-4.09713 2.389231,-5.75618 0.47931,-0.59131 1.36047,-1.45931 1.94773,-1.91866 1.66381,-1.30142 3.59793,-2.0679 5.71185,-2.26356 0.74008,-0.0685 2.14667,-0.0357 2.81552,0.0658 2.37403,0.35996 4.41557,1.40279 6.17312,3.15327 2.15042,2.14176 3.22854,4.57316 3.33994,7.53223 0.0902,2.39707 -0.52303,4.61675 -1.81447,6.56727 -1.72257,2.60165 -4.10031,4.21709 -7.11718,4.8354 l -0.65182,0.13359 -0.0123,1.623 -0.0123,1.623 1.87722,0.0138 1.87723,0.0138 0.1301,0.13015 0.13011,0.13015 v 1.35915 1.35915 l -0.13012,0.13015 -0.13011,0.13015 -1.87661,0.0133 -1.87661,0.0133 v 1.85622 1.85623 l -0.13721,0.13721 -0.13722,0.13721 h -1.34504 -1.34503 z m 2.73034,-13.59092 c 1.46358,-0.22063 2.72874,-0.79978 3.88716,-1.77945 1.4446,-1.22169 2.40012,-2.83386 2.73655,-4.61719 0.0855,-0.45333 0.1044,-0.72122 0.1051,-1.4914 0.001,-0.97904 -0.0336,-1.28502 -0.23729,-2.10291 -0.52626,-2.11359 -2.16516,-4.09673 -4.21904,-5.10524 -1.10726,-0.54369 -2.20468,-0.79382 -3.48722,-0.79485 -2.06889,-10e-4 -3.87148,0.69683 -5.39375,2.09002 -1.29223,1.18266 -2.17522,2.74993 -2.48507,4.41088 -0.13488,0.72308 -0.12186,2.44293 0.0237,3.12156 0.35327,1.64768 1.05614,2.89108 2.33598,4.13238 1.29248,1.25357 2.60116,1.88252 4.52356,2.17402 0.32414,0.0491 1.80108,0.0239 2.21039,-0.0378 z"
       id="path103-6"
       inkscape:connector-curvature="0"
       sodipodi:nodetypes="ccccscscccccccccccccccscscccccccccccccccccccccssccccccccccc" />
    <g
       id="g1072"
       transform="rotate(13.872533,49.275849,294.61624)">
      <path
         inkscape:connector-curvature="0"
         id="path263"
         d="m 34.678967,295.73289 c 0,-0.0748 0.219741,-0.45893 0.488313,-0.85355 2.309019,-3.39259 4.383701,-8.11761 5.093362,-11.59998 0.429719,-2.10866 0.479823,-5.17693 0.110195,-6.74803 l -0.248158,-1.05477 1.016701,-0.45256 c 4.756694,-2.11729 8.936963,-4.35527 12.24981,-6.55814 1.025308,-0.68178 1.949639,-1.23959 2.054067,-1.23959 0.360252,0 0.02034,5.27543 -0.478986,7.43408 -1.607922,6.95112 -5.946228,12.76873 -12.898276,17.29641 -2.438264,1.58798 -7.387025,4.1177 -7.387025,3.77613 z m -12.86277,-1.14744 c -0.233049,-0.33273 -0.236399,-0.45315 -0.0238,-0.85582 0.136071,-0.25774 1.987054,-2.19781 4.113298,-4.31128 3.43292,-3.41229 3.923414,-3.83606 4.379432,-3.7836 0.373051,0.043 0.561548,0.19639 0.689049,0.56106 0.169318,0.48425 0.02953,0.64806 -3.958985,4.63941 -4.297172,4.30022 -4.640359,4.54777 -5.198984,3.75023 z m -7.212891,-0.67489 c -0.482867,-0.18917 -0.641396,-0.74601 -0.364458,-1.28014 0.42318,-0.81619 7.544954,-7.74736 7.960413,-7.74736 0.460507,0 0.948742,0.44975 0.948742,0.87397 0,0.26398 -7.893043,8.33712 -8.116878,8.3021 -0.04451,-0.007 -0.237025,-0.0739 -0.427819,-0.14857 z m -8.5355476,-0.59548 c -0.639147,-0.63916 -0.361174,-0.98393 5.5974156,-6.94252 4.045042,-4.04505 5.932088,-5.81361 6.203042,-5.81361 0.499152,0 0.955674,0.45652 0.955674,0.95566 0,0.27096 -1.768579,2.158 -5.813621,6.20304 -5.9585886,5.9586 -6.3033616,6.23657 -6.9425106,5.59743 z m -0.146216,-8.07833 c -0.209243,-0.0789 -0.429537,-0.3312 -0.489543,-0.56066 -0.09369,-0.3583 0.455235,-0.98358 3.888483,-4.42923 2.1986706,-2.20662 4.1360616,-4.01202 4.3053126,-4.01202 0.42422,0 0.873982,0.48822 0.873982,0.94873 0,0.41466 -6.9282676,7.53464 -7.7473666,7.96175 -0.276485,0.14417 -0.597345,0.17947 -0.830868,0.0914 z m 16.0552266,-7.92101 -3.600165,-3.60355 1.395205,-1.3952 1.395206,-1.39521 3.645483,3.64548 3.64548,3.64548 -1.344237,1.35328 c -0.73933,0.74429 -1.387564,1.35326 -1.44052,1.35326 -0.05296,0 -1.716359,-1.6216 -3.696452,-3.60354 z m 4.054999,-4.05271 -6.393153,-6.39506 0.675008,-0.67501 0.675011,-0.675 6.4347,6.43469 6.434701,6.4347 -0.615818,0.63538 c -0.338703,0.34945 -0.661153,0.63536 -0.716558,0.63536 -0.0554,0 -2.977655,-2.87778 -6.493891,-6.39506 z m -21.2343806,4.3036 c -0.797547,-0.55862 -0.549994,-0.90181 3.750228,-5.19898 3.9913476,-3.98853 4.1551546,-4.1283 4.6394106,-3.95898 0.364659,0.1275 0.51814,0.31599 0.561053,0.68905 0.05245,0.45602 -0.371305,0.94651 -3.7835966,4.37943 -2.113469,2.12624 -4.053546,3.97722 -4.31128,4.1133 -0.402675,0.21259 -0.523089,0.20923 -0.855815,-0.0239 z m 23.8849716,-6.88575 -5.156151,-5.16624 0.863947,-2.34223 c 2.354489,-6.38321 4.794285,-11.24935 8.256506,-16.46751 7.161965,-10.79432 16.797939,-18.514 28.580505,-22.89673 1.372429,-0.5105 2.516302,-0.90248 2.541939,-0.87107 0.02564,0.0314 0.227868,0.66232 0.4494,1.40204 1.539061,5.13908 5.686117,9.28613 10.825197,10.82519 0.73971,0.22153 1.370633,0.42376 1.402033,0.44939 0.14805,0.12085 -1.940243,5.32951 -3.103103,7.73984 -2.87872,5.96688 -6.365172,10.86533 -11.092893,15.58547 -6.9398,6.92868 -15.971552,12.45789 -26.504586,16.226 l -1.906641,0.68209 z m -24.7111806,-7.013 c 0.794779,-1.80049 2.415253,-4.75802 3.578557,-6.53122 4.5840976,-6.98743 10.5660656,-11.32485 17.7603226,-12.87771 1.720085,-0.37127 6.846512,-0.59671 6.846512,-0.30108 0,0.11312 -0.277673,0.59212 -0.617046,1.06451 -1.871585,2.6051 -5.087023,8.48877 -6.979508,12.77124 l -0.64861,1.46773 -1.057344,-0.24875 c -2.461307,-0.57906 -6.754144,-0.16732 -9.837756,0.94356 -2.879818,1.03746 -6.2694756,2.73578 -8.5408176,4.2792 -0.379207,0.25768 -0.750701,0.4685 -0.825544,0.4685 -0.07484,0 0.06971,-0.46619 0.321234,-1.03598 z M 74.969022,233.26405 c -3.49945,-1.21183 -6.86455,-4.30905 -8.400741,-7.73201 -0.563304,-1.25515 -1.021748,-2.92642 -0.849888,-3.09829 0.166554,-0.16655 2.591359,-0.73514 4.904759,-1.15011 2.46775,-0.44267 4.76757,-0.69505 6.756423,-0.74145 l 1.531473,-0.0357 -0.0586,1.6943 c -0.0999,2.88933 -0.915713,8.22059 -1.658433,10.83799 -0.23144,0.81564 -0.4549,0.83826 -2.224993,0.2253 z"
         style="fill:#000000;stroke-width:0.18017134"
         sodipodi:nodetypes="ccsccccsccccccsccsccccsscccssscccccssscccccccccscsccccccssccccccccccssscssccsccccscscsccscsccccccccccc" />
      <path
         sodipodi:nodetypes="cscccccsccsscscscccccsccccccccccccccsssccccscccccsccccc"
         inkscape:connector-curvature="0"
         id="path103"
         d="m 52.5768,254.47587 c -2.010705,-0.22088 -3.582002,-0.88845 -5.126102,-2.17783 -1.077278,-0.89958 -1.917862,-1.96356 -2.51858,-3.18793 -0.438966,-0.89469 -0.688636,-1.69172 -0.843914,-2.69399 -0.100568,-0.64917 -0.100484,-2.26763 1.62e-4,-2.90791 0.249696,-1.58869 0.820121,-2.93884 1.779946,-4.21302 0.386104,-0.51256 1.228637,-1.38023 1.739573,-1.79149 1.41757,-1.14101 3.060433,-1.8302 4.817683,-2.02102 0.575559,-0.0626 1.825663,-0.0522 2.372658,0.0194 1.512197,0.19822 2.874173,0.71139 4.08813,1.54027 0.18857,0.12875 0.359282,0.2341 0.379363,0.2341 0.02007,0 0.682881,-0.64656 1.472889,-1.4368 l 1.436382,-1.43679 h -0.981632 c -0.615501,0 -1.028966,-0.0165 -1.108538,-0.0442 -0.231593,-0.0808 -0.244207,-0.15149 -0.244207,-1.36998 v -1.09891 l 0.116444,-0.13034 0.116447,-0.13034 3.166232,-0.0117 c 1.741433,-0.007 3.226618,-8.3e-4 3.300409,0.0126 0.07379,0.0134 0.177063,0.0672 0.229487,0.11965 l 0.09532,0.0953 v 3.28903 3.28903 l -0.10522,0.10527 -0.10522,0.10527 h -1.168385 -1.168383 l -0.103327,-0.1228 -0.103326,-0.1228 v -1.02443 -1.02444 l -1.452763,1.45235 -1.452761,1.45235 0.249037,0.3634 c 1.192635,1.74033 1.736194,3.73875 1.615721,5.94028 -0.133685,2.44292 -1.120008,4.55559 -2.941862,6.30136 -0.764588,0.73267 -1.465146,1.23402 -2.352657,1.68368 -0.868171,0.43987 -1.797302,0.73347 -2.804338,0.88616 -0.501429,0.0761 -1.915884,0.10981 -2.39466,0.0574 z m 2.334794,-2.83074 c 1.123811,-0.23959 2.060137,-0.69834 2.963108,-1.45176 1.472733,-1.22881 2.336665,-2.91208 2.440282,-4.75463 0.09043,-1.60819 -0.256037,-2.96377 -1.067808,-4.17774 -1.072772,-1.6043 -2.662097,-2.66785 -4.474408,-2.99418 -0.657241,-0.11836 -1.789166,-0.11819 -2.442525,3.4e-4 -0.95491,0.17326 -1.889241,0.56399 -2.666945,1.11526 -0.766676,0.54345 -1.660736,1.54357 -2.104855,2.35452 -1.010644,1.84543 -1.070408,4.26225 -0.152628,6.17231 0.723249,1.50521 2.190157,2.86075 3.718168,3.4359 0.380389,0.14318 0.933993,0.28686 1.372996,0.35634 0.56156,0.0888 1.8774,0.0581 2.414615,-0.0564 z"
         style="fill:#ffffff;fill-opacity:1;stroke-width:0.03991101" />
    </g>
  </g>
</svg>
