<?xml version="1.0" encoding="UTF-8" standalone="no"?>
<!-- Created with Inkscape (http://www.inkscape.org/) -->

<svg
   xmlns:dc="http://purl.org/dc/elements/1.1/"
   xmlns:cc="http://creativecommons.org/ns#"
   xmlns:rdf="http://www.w3.org/1999/02/22-rdf-syntax-ns#"
   xmlns:svg="http://www.w3.org/2000/svg"
   xmlns="http://www.w3.org/2000/svg"
   xmlns:sodipodi="http://sodipodi.sourceforge.net/DTD/sodipodi-0.dtd"
   xmlns:inkscape="http://www.inkscape.org/namespaces/inkscape"
   width="500"
   height="300"
   viewBox="0 0 132.29167 79.375"
   version="1.1"
   id="svg8"
   sodipodi:docname="feature-love-science.svg"
   inkscape:version="0.92.4 (unknown)">
  <defs
     id="defs2" />
  <sodipodi:namedview
     id="base"
     pagecolor="#ffffff"
     bordercolor="#666666"
     borderopacity="1.0"
     inkscape:pageopacity="0.0"
     inkscape:pageshadow="2"
     inkscape:zoom="1.2374369"
     inkscape:cx="284.40912"
     inkscape:cy="172.75828"
     inkscape:document-units="mm"
     inkscape:current-layer="layer1"
     showgrid="false"
     units="px"
     inkscape:window-width="1366"
     inkscape:window-height="704"
     inkscape:window-x="0"
     inkscape:window-y="27"
     inkscape:window-maximized="1" />
  <metadata
     id="metadata5">
    <rdf:RDF>
      <cc:Work
         rdf:about="">
        <dc:format>image/svg+xml</dc:format>
        <dc:type
           rdf:resource="http://purl.org/dc/dcmitype/StillImage" />
        <dc:title></dc:title>
      </cc:Work>
    </rdf:RDF>
  </metadata>
  <g
     inkscape:label="Layer 1"
     inkscape:groupmode="layer"
     id="layer1"
     transform="translate(0,-217.625)">
    <path
       style="fill:#000000;stroke-width:0.78833163"
       d="m 63.931723,293.94121 c -3.672746,-1.79825 -3.99826,-3.59562 -4.010913,-22.1463 -0.01066,-15.84834 -0.141916,-17.48624 -1.537069,-19.20257 -1.890836,-2.32614 -1.334941,-4.83051 1.286273,-5.79491 3.331492,-1.22569 15.66325,-0.88327 17.691167,0.49124 2.212152,1.49937 2.28644,3.81766 0.17831,5.56437 -1.517848,1.25763 -1.019203,2.29695 -1.602773,19.43929 0,0 0.095,13.43029 -0.943225,18.66716 -0.7608,3.83752 -6.945276,4.89761 -11.061773,2.98172 z m 9.154708,-3.05392 c 1.043807,-1.44209 1.247519,-4.72102 1.247519,-20.07976 0,-15.60126 0.180409,-18.42323 1.202079,-18.8026 0.661144,-0.2455 1.20208,-1.1671 1.20208,-2.04792 0,-1.53266 -0.370251,-1.59208 -8.605397,-1.38145 -7.583648,0.19395 -8.638602,0.38775 -8.884955,1.63218 -0.177972,0.89902 0.302305,1.5593 1.321871,1.81732 1.54201,0.3902 1.604615,1.09852 1.68743,19.09333 0.0983,21.3567 0.137095,21.49244 6.145255,21.49244 2.642811,0 3.724746,-0.3981 4.684118,-1.72354 z m -6.766345,0.42599 c -2.863207,-1.02861 -3.205546,-2.68649 -3.205546,-15.52371 v -12.64735 h 4.80832 4.808316 l 0.232932,12.98945 c 0.177326,9.65649 0.06033,9.94059 -0.854171,13.83605 -0.41683,1.77555 -4.154212,1.93314 -5.789754,1.34556 z m -60.45269,2.46262 c -1.9851099,-2.12262 -1.4066094,-3.34739 8.071697,-17.08884 l 8.304744,-12.04004 v -8.24535 c 0,-6.38311 -0.271486,-8.46335 -1.202076,-9.21069 -1.637224,-1.31488 -1.517088,-4.43525 0.205098,-5.32717 1.576943,-0.81665 12.247515,-0.65347 13.690277,0.20938 1.160162,0.69387 1.190415,2.42289 0.07761,4.43503 -0.468977,0.84797 -0.870935,5.48467 -0.893244,10.30377 l -0.04054,8.76201 8.220682,11.89449 c 4.521379,6.54194 8.394425,12.5374 8.606774,13.32317 0.212347,0.78577 -0.255901,2.11516 -1.040555,2.95417 -1.348169,1.44156 -2.559112,1.5255 -22.014279,1.5255 -19.3148451,0 -20.674094,-0.0926 -21.9861493,-1.49543 z m 41.935377,-0.76357 c 1.75982,-1.07834 0.844351,-2.88397 -7.81347,-15.41096 l -8.128827,-11.76155 v -10.01696 c 0,-8.36905 0.206109,-10.09347 1.252873,-10.48218 2.678523,-0.99462 -5.59e-4,-2.02717 -5.259806,-2.02717 -5.259246,0 -7.938327,1.03255 -5.259803,2.02717 1.046761,0.38871 1.25287,2.11313 1.25287,10.48218 v 10.01696 l -8.055607,11.65565 C 6.97158,290.25626 6.6331572,290.8571 7.3073033,292.5571 c 0.3926876,0.99024 3.3549137,1.16147 19.9200487,1.15136 10.702324,-0.006 19.961262,-0.31978 20.575421,-0.69613 z M 8.4026532,291.70027 c -0.2666137,-0.258 1.1686891,-2.87527 3.1895538,-5.81618 l 3.674307,-5.34708 h 12.610477 12.610474 l 3.299674,4.90088 c 1.814824,2.69548 3.299675,5.31275 3.299675,5.81616 0,0.6778 -4.955903,0.91531 -19.099706,0.91531 -10.504839,0 -19.3178441,-0.21109 -19.5844548,-0.46909 z m 86.7152828,1.81472 c -4.748591,-3.09668 -7.443049,-7.68525 -7.812835,-13.30498 -0.182076,-2.76703 0.113297,-6.23489 0.670119,-7.86755 1.195323,-3.50483 6.342388,-9.11189 9.541423,-10.39415 2.18887,-0.87736 2.33523,-1.24001 2.872967,-7.11839 0.51712,-5.65312 0.41895,-6.34605 -1.124434,-7.9358 -1.884024,-1.94064 -2.188295,-4.34018 -0.729357,-5.75197 1.309844,-1.26753 16.000091,-1.26753 17.309951,0 1.45679,1.40973 1.1533,4.08961 -0.64112,5.66107 -1.35564,1.18719 -1.60276,2.38846 -1.60276,7.79101 0,6.22503 0.0527,6.40021 2.07478,6.89132 3.15335,0.76587 9.43499,7.30278 10.56922,10.99878 2.38526,7.77248 -0.26264,16.18626 -6.46139,20.53153 -3.11619,2.1844 -3.51296,2.25547 -12.59544,2.25547 -8.416321,0 -9.65404,-0.1801 -12.071124,-1.75634 z m 24.793204,-3.49971 c 6.0731,-5.87685 7.08727,-12.86362 2.89544,-19.94738 -2.03118,-3.43252 -5.53322,-6.25431 -8.72362,-7.02917 l -2.08386,-0.50612 v -8.44632 c 0,-6.83709 0.22002,-8.4463 1.1548,-8.4463 1.70507,0 2.3309,-1.45317 1.19582,-2.77666 -0.76958,-0.89731 -2.54056,-1.10772 -7.87348,-0.9354 -5.91359,0.1911 -6.919807,0.42079 -7.159654,1.63442 -0.18067,0.91421 0.310617,1.56129 1.393404,1.83529 1.56057,0.39491 1.67248,0.96329 1.67248,8.4946 v 8.07141 l -2.20028,0.80951 c -4.029815,1.48263 -7.568393,4.74429 -9.498229,8.75496 -3.386931,7.03889 -2.191494,12.92027 3.762013,18.50864 0,0 2.213112,2.31812 3.658733,2.88703 2.822283,1.11067 9.068483,0.74345 9.068483,0.74345 0,0 6.17257,0.45245 8.96226,-0.63725 1.50015,-0.58598 3.77569,-3.01471 3.77569,-3.01471 z m -23.913408,0.11774 c -3.080201,-2.50805 -5.636057,-7.19736 -5.636057,-10.34068 v -2.35736 h 16.829115 16.82911 l -0.0176,2.13261 c -0.0277,3.34805 -2.75134,8.32307 -5.78087,10.55915 -2.58632,1.90893 -3.32193,2.04256 -11.24514,2.04256 -7.982064,0 -8.623981,-0.11895 -10.978541,-2.03628 z M 69.525633,242.56735 c 0,-1.25427 1.25226,-1.53959 1.951568,-0.44467 0.243861,0.38183 -0.09548,0.89433 -0.754089,1.13891 -0.727388,0.27009 -1.197479,-0.001 -1.197479,-0.69424 z m -43.721459,-4.11253 c -1.242259,-1.27958 0.205449,-2.8964 0.799442,-2.34835 1.306015,1.20501 2.1422,-0.49811 2.1422,-0.49811 0.784184,-0.3994 2.440367,0.57374 0.473509,2.70894 l -1.781261,2.00394 z m 35.744586,-2.02391 c -2.164295,-2.52355 1.41743,-5.55973 3.818151,-3.23657 1.020606,0.98761 1.125121,1.59357 0.453008,2.62637 -1.170154,1.79809 -3.025091,2.0631 -4.271159,0.6102 z m 42.43649,0.34314 c 0,-0.61104 -0.68795,-1.32226 -1.52876,-1.58048 -1.79422,-0.55108 -2.762377,-2.47547 -1.59626,-3.17288 0.44658,-0.26707 1.69301,-0.27158 2.76987,-0.009 1.59949,0.38848 1.95794,0.18442 1.95794,-1.11455 0,-0.87456 0.55647,-1.79674 1.23662,-2.04932 1.59101,-0.59078 1.64672,-0.50579 2.27715,3.47409 0.48369,3.0535 0.39489,3.31209 -0.99122,2.88634 -1.09223,-0.33545 -1.64262,-0.0233 -1.94752,1.10513 -0.48346,1.7891 -2.17782,2.14833 -2.17782,0.46174 z m 8.81524,-4.70519 c 0,-0.63977 0.36063,-1.16323 0.8014,-1.16323 0.44076,0 0.80137,0.52346 0.80137,1.16323 0,0.63977 -0.36061,1.16322 -0.80137,1.16322 -0.44077,0 -0.8014,-0.52345 -0.8014,-1.16322 z m -82.520424,-1.52491 c -1.352537,-1.57703 -0.680962,-2.9811 1.500268,-3.13659 2.175276,-0.15505 3.063702,1.50053 1.674445,3.1204 -1.242631,1.44889 -1.942911,1.45246 -3.174713,0.0155 z m 36.223674,-1.66873 c 0.495313,-1.43794 2.220506,-1.67643 2.220506,-0.30696 0,0.67531 -0.57099,1.22785 -1.268859,1.22785 -0.69788,0 -1.126114,-0.4144 -0.951647,-0.92089 z m -42.284387,-2.6663 c -0.612967,-0.95974 0.917284,-2.25096 2.691219,-2.27084 1.510588,-0.0173 0.79153,2.63466 -0.794632,2.93025 -0.725179,0.1351 -1.578641,-0.16162 -1.896587,-0.65941 z m 86.978367,-0.81465 c 0,-0.47217 -0.56454,-0.64883 -1.25448,-0.39262 -0.99105,0.36801 -1.14043,0.10034 -0.71133,-1.27412 0.80195,-2.56895 1.83343,-3.36391 2.42599,-1.86966 0.28197,0.71111 1.25126,1.29292 2.15393,1.29292 1.59046,0 1.59638,0.0481 0.19073,1.55099 -1.60425,1.71539 -2.80484,2.01183 -2.80484,0.69249 z m -8.81525,-4.51309 c 0,-1.10981 0.51468,-1.60784 1.66153,-1.60784 2.05368,0 1.8207,2.56672 -0.2683,2.95604 -0.96167,0.17921 -1.39323,-0.2384 -1.39323,-1.3482 z m -72.926155,-0.44461 c 0,-0.63978 0.540938,-1.16323 1.202081,-1.16323 0.661143,0 1.20208,0.52345 1.20208,1.16323 0,0.63977 -0.540937,1.16323 -1.20208,1.16323 -0.661143,0 -1.202081,-0.52346 -1.202081,-1.16323 z"
       id="path23"
       inkscape:connector-curvature="0"
       sodipodi:nodetypes="ccccscsscccscssccssccsccccscccscsccccscscsscccscscscscsccccscccsssccsccsscccscccsccsccsscsscsccscacaccscccccsccsccscsscccsccsccccsccccccsssssccccccsscccccscccscssszssssss" />
  </g>
</svg>
