<?xml version="1.0" encoding="UTF-8" standalone="no"?>
<!-- Created with Inkscape (http://www.inkscape.org/) -->

<svg
   xmlns:dc="http://purl.org/dc/elements/1.1/"
   xmlns:cc="http://creativecommons.org/ns#"
   xmlns:rdf="http://www.w3.org/1999/02/22-rdf-syntax-ns#"
   xmlns:svg="http://www.w3.org/2000/svg"
   xmlns="http://www.w3.org/2000/svg"
   xmlns:sodipodi="http://sodipodi.sourceforge.net/DTD/sodipodi-0.dtd"
   xmlns:inkscape="http://www.inkscape.org/namespaces/inkscape"
   width="500"
   height="300"
   viewBox="0 0 132.29167 79.375"
   version="1.1"
   id="svg8"
   sodipodi:docname="feature-love-science.svg"
   inkscape:version="0.92.4 (unknown)">
  <defs
     id="defs2" />
  <sodipodi:namedview
     id="base"
     pagecolor="#ffffff"
     bordercolor="#666666"
     borderopacity="1.0"
     inkscape:pageopacity="0.0"
     inkscape:pageshadow="2"
     inkscape:zoom="1.2374369"
     inkscape:cx="284.40912"
     inkscape:cy="172.75828"
     inkscape:document-units="mm"
     inkscape:current-layer="layer1"
     showgrid="false"
     units="px"
     inkscape:window-width="1366"
     inkscape:window-height="704"
     inkscape:window-x="0"
     inkscape:window-y="27"
     inkscape:window-maximized="1" />
  <metadata
     id="metadata5">
    <rdf:RDF>
      <cc:Work
         rdf:about="">
        <dc:format>image/svg+xml</dc:format>
        <dc:type
           rdf:resource="http://purl.org/dc/dcmitype/StillImage" />
        <dc:title />
      </cc:Work>
    </rdf:RDF>
  </metadata>
  <g
     inkscape:label="Layer 1"
     inkscape:groupmode="layer"
     id="layer1"
     transform="translate(0,-217.625)">
    <path
       style="fill:#000000;stroke-width:0.74269897"
       d="m 64.165856,292.40103 c -3.402783,-1.72272 -3.704371,-3.4446 -3.716093,-21.2161 -0.0099,-15.18267 -0.131484,-16.75178 -1.424088,-18.39602 -1.751852,-2.22843 -1.236816,-4.62761 1.191726,-5.55151 3.086613,-1.17421 14.511933,-0.84617 16.390788,0.47061 2.04955,1.43639 2.118377,3.65731 0.165204,5.33065 -1.40628,1.20481 -0.944287,2.20047 -1.484962,18.62279 0,0 0.08802,12.86619 -0.873894,17.88309 -0.704877,3.67634 -6.434768,4.6919 -10.248683,2.85649 z m 8.481797,-2.92565 c 0.967082,-1.38152 1.155821,-4.52273 1.155821,-19.23636 0,-14.94597 0.167148,-17.64941 1.11372,-18.01285 0.612548,-0.23518 1.113722,-1.11807 1.113722,-1.9619 0,-1.46828 -0.343035,-1.52521 -7.972862,-1.32342 -7.026216,0.1858 -8.003627,0.37146 -8.231872,1.56362 -0.16489,0.86126 0.280084,1.49381 1.224708,1.74099 1.428666,0.37381 1.486669,1.05238 1.563397,18.29136 0.09107,20.45967 0.127017,20.5897 5.693551,20.5897 2.448553,0 3.450961,-0.38137 4.339815,-1.65114 z m -6.268989,0.40809 c -2.652749,-0.9854 -2.969925,-2.57365 -2.969925,-14.87167 v -12.11613 h 4.454888 4.454883 l 0.215811,12.44386 c 0.164291,9.25089 0.0559,9.52306 -0.791386,13.2549 -0.386191,1.70097 -3.848859,1.85194 -5.364181,1.28904 z m -56.009153,2.35919 c -1.8391961,-2.03347 -1.3032174,-3.20679 7.478394,-16.37107 l 7.694308,-11.53433 v -7.89902 c 0,-6.115 -0.25153,-8.10787 -1.113718,-8.82382 -1.516881,-1.25965 -1.405576,-4.24896 0.190022,-5.10341 1.461031,-0.78235 11.347269,-0.62603 12.683982,0.20058 1.074884,0.66473 1.102914,2.32112 0.07191,4.24875 -0.434505,0.81235 -0.806917,5.2543 -0.827586,9.87099 l -0.03756,8.39398 7.616426,11.39489 c 4.189038,6.26716 7.777398,12.0108 7.974138,12.76356 0.196739,0.75277 -0.237091,2.02632 -0.964069,2.83009 -1.249073,1.38101 -2.371006,1.46143 -20.396133,1.46143 -17.895119,0 -19.154458,-0.0887 -20.370072,-1.43262 z m 38.852944,-0.7315 c 1.630465,-1.03305 0.782287,-2.76284 -7.239146,-14.76366 l -7.531323,-11.26754 v -9.59622 c 0,-8.01753 0.19096,-9.66952 1.160782,-10.0419 2.48164,-0.95284 -5.18e-4,-1.94202 -4.873187,-1.94202 -4.872669,0 -7.354825,0.98918 -4.873184,1.94202 0.969819,0.37238 1.160778,2.02437 1.160778,10.0419 v 9.59622 l -7.463484,11.16609 c -8.171158,12.2248 -8.484705,12.80041 -7.860111,14.429 0.363823,0.94865 3.108313,1.11269 18.455837,1.103 9.915657,-0.006 18.494022,-0.30635 19.063038,-0.66689 z m -36.504038,-1.25695 c -0.247017,-0.24716 1.082785,-2.7545 2.955108,-5.57189 l 3.404229,-5.12248 h 11.683552 11.683548 l 3.057134,4.69503 c 1.681426,2.58226 3.057134,5.0896 3.057134,5.57186 0,0.64933 -4.591623,0.87687 -17.695793,0.87687 -9.732688,0 -17.897898,-0.20223 -18.144912,-0.44939 z m 80.341328,1.7385 c -4.399548,-2.96661 -6.895952,-7.36245 -7.238557,-12.74614 -0.168693,-2.65081 0.104969,-5.97301 0.620862,-7.53709 1.107462,-3.35762 5.876195,-8.72917 8.840086,-9.95757 2.027979,-0.84051 2.163581,-1.18793 2.661796,-6.8194 0.479107,-5.41568 0.38815,-6.0795 -1.041787,-7.60248 -1.74554,-1.85913 -2.027445,-4.15788 -0.675747,-5.51037 1.213566,-1.21429 14.824032,-1.21429 16.037612,0 1.3497,1.35052 1.06853,3.91783 -0.594,5.42329 -1.25599,1.13732 -1.48495,2.28814 -1.48495,7.46377 0,5.96356 0.0488,6.13138 1.92227,6.60186 2.92157,0.73371 8.74148,6.99605 9.79234,10.53681 2.20993,7.44601 -0.24333,15.50639 -5.98645,19.66915 -2.88714,2.09265 -3.25474,2.16074 -11.66962,2.16074 -7.797696,0 -8.944437,-0.17254 -11.183855,-1.68257 z m 22.970815,-3.35272 c 5.6267,-5.63 6.56632,-12.32331 2.68261,-19.10954 -1.88189,-3.28834 -5.12651,-5.99161 -8.0824,-6.73392 l -1.93069,-0.48486 v -8.09156 c 0,-6.54991 0.20385,-8.09153 1.06993,-8.09153 1.57973,0 2.15956,-1.39214 1.10791,-2.66004 -0.71301,-0.85962 -2.35381,-1.06119 -7.29475,-0.89611 -5.478918,0.18308 -6.411177,0.40312 -6.633394,1.56577 -0.16739,0.87581 0.287786,1.49572 1.290986,1.75821 1.445861,0.37832 1.549541,0.92283 1.549541,8.1378 v 7.73239 l -2.038548,0.77551 c -3.733607,1.42036 -7.012084,4.54502 -8.800068,8.38723 -3.137977,6.74324 -2.03041,12.37759 3.485488,17.73123 0,0 2.050439,2.22075 3.3898,2.76577 2.614834,1.06402 8.401925,0.71222 8.401925,0.71222 0,0 5.71886,0.43345 8.30349,-0.61048 1.38988,-0.56137 3.49817,-2.88809 3.49817,-2.88809 z m -22.155688,0.1128 c -2.853792,-2.40271 -5.221782,-6.89505 -5.221782,-9.90635 v -2.25834 h 15.59211 15.59211 l -0.0164,2.04303 c -0.0256,3.20743 -2.54911,7.97348 -5.35595,10.11564 -2.39622,1.82875 -3.07775,1.95677 -10.41858,1.95677 -7.395358,0 -7.990091,-0.11395 -10.17158,-1.95075 z M 69.348589,243.185 c 0,-1.20159 1.160213,-1.47493 1.808119,-0.426 0.225937,0.3658 -0.08846,0.85677 -0.69866,1.09108 -0.673922,0.25874 -1.109459,-9.6e-4 -1.109459,-0.66508 z m -40.50774,-3.9398 c -1.150947,-1.22583 0.190348,-2.77474 0.74068,-2.24971 1.210017,1.1544 1.984739,-0.47719 1.984739,-0.47719 0.726543,-0.38262 2.260989,0.54964 0.438704,2.59516 l -1.65033,1.91977 z m 33.117202,-1.9389 c -2.005209,-2.41755 1.313243,-5.32621 3.5375,-3.10062 0.945587,0.94612 1.04242,1.52663 0.41971,2.51605 -1.084142,1.72257 -2.802733,1.97645 -3.95721,0.58457 z m 39.317229,0.32873 c 0,-0.58538 -0.63739,-1.26672 -1.416397,-1.5141 -1.662341,-0.52793 -2.55933,-2.37149 -1.478931,-3.03961 0.413757,-0.25585 1.568571,-0.26017 2.566278,-0.009 1.48193,0.37216 1.81403,0.17667 1.81403,-1.06774 0,-0.83782 0.51557,-1.72127 1.14573,-1.96324 1.47406,-0.56596 1.52567,-0.48454 2.10976,3.32817 0.44815,2.92525 0.36587,3.17297 -0.91835,2.76511 -1.01195,-0.32136 -1.52189,-0.0223 -1.80437,1.05871 -0.44792,1.71395 -2.01775,2.05809 -2.01775,0.44234 z m 8.16729,-4.50756 c 0,-0.6129 0.33412,-1.11437 0.74249,-1.11437 0.40837,0 0.74247,0.50147 0.74247,1.11437 0,0.6129 -0.3341,1.11436 -0.74247,1.11436 -0.40837,0 -0.74249,-0.50146 -0.74249,-1.11436 z m -76.454826,-1.46086 c -1.253119,-1.51079 -0.630908,-2.85589 1.389992,-3.00485 2.015384,-0.14853 2.838506,1.43751 1.551366,2.98934 -1.151293,1.38803 -1.800099,1.39145 -2.941358,0.0148 z m 33.561074,-1.59864 c 0.458906,-1.37754 2.057289,-1.60602 2.057289,-0.29407 0,0.64695 -0.52902,1.17628 -1.175591,1.17628 -0.646584,0 -1.043341,-0.39699 -0.881698,-0.88221 z M 27.37252,227.51366 c -0.567911,-0.91943 0.84986,-2.15641 2.493403,-2.17546 1.399552,-0.0166 0.733349,2.524 -0.736224,2.80717 -0.671874,0.12943 -1.462604,-0.15483 -1.757179,-0.63171 z m 80.58509,-0.78043 c 0,-0.45234 -0.52305,-0.62158 -1.16227,-0.37613 -0.9182,0.35255 -1.05661,0.0961 -0.65904,-1.2206 0.743,-2.46105 1.69866,-3.22262 2.24766,-1.79113 0.26125,0.68124 1.15929,1.23861 1.99561,1.23861 1.47356,0 1.47904,0.0461 0.17671,1.48585 -1.48633,1.64333 -2.59867,1.92732 -2.59867,0.6634 z m -8.167307,-4.32353 c 0,-1.0632 0.476847,-1.54031 1.539407,-1.54031 1.90274,0 1.68688,2.45891 -0.24858,2.83188 -0.89099,0.17168 -1.290827,-0.22838 -1.290827,-1.29157 z m -67.565761,-0.42594 c 0,-0.6129 0.501176,-1.11437 1.113723,-1.11437 0.612546,0 1.113721,0.50147 1.113721,1.11437 0,0.6129 -0.501175,1.11438 -1.113721,1.11438 -0.612547,0 -1.113723,-0.50148 -1.113723,-1.11438 z"
       id="path23"
       inkscape:connector-curvature="0"
       sodipodi:nodetypes="ccccscsscccscssccssccsccccscccscsccccscscsscccscscscscsccccscccsssccsccsscccscccsccsccsscsscsccscacaccscccccsccsccscsscccsccsccccsccccccsssssccccccsscccccscccscssszssssss" />
  </g>
</svg>
