<?xml version="1.0" encoding="UTF-8" standalone="no"?>
<!-- Created with Inkscape (http://www.inkscape.org/) -->

<svg
   xmlns:dc="http://purl.org/dc/elements/1.1/"
   xmlns:cc="http://creativecommons.org/ns#"
   xmlns:rdf="http://www.w3.org/1999/02/22-rdf-syntax-ns#"
   xmlns:svg="http://www.w3.org/2000/svg"
   xmlns="http://www.w3.org/2000/svg"
   xmlns:sodipodi="http://sodipodi.sourceforge.net/DTD/sodipodi-0.dtd"
   xmlns:inkscape="http://www.inkscape.org/namespaces/inkscape"
   width="500"
   height="300"
   viewBox="0 0 132.29167 79.375"
   version="1.1"
   id="svg8"
   sodipodi:docname="feature-field-reports.svg"
   inkscape:version="0.92.4 (unknown)">
  <defs
     id="defs2" />
  <sodipodi:namedview
     id="base"
     pagecolor="#ffffff"
     bordercolor="#666666"
     borderopacity="1.0"
     inkscape:pageopacity="0.0"
     inkscape:pageshadow="2"
     inkscape:zoom="1.2374369"
     inkscape:cx="242.54557"
     inkscape:cy="172.75828"
     inkscape:document-units="mm"
     inkscape:current-layer="layer1"
     showgrid="false"
     units="px"
     inkscape:window-width="1366"
     inkscape:window-height="704"
     inkscape:window-x="0"
     inkscape:window-y="27"
     inkscape:window-maximized="1" />
  <metadata
     id="metadata5">
    <rdf:RDF>
      <cc:Work
         rdf:about="">
        <dc:format>image/svg+xml</dc:format>
        <dc:type
           rdf:resource="http://purl.org/dc/dcmitype/StillImage" />
        <dc:title></dc:title>
      </cc:Work>
    </rdf:RDF>
  </metadata>
  <g
     inkscape:label="Layer 1"
     inkscape:groupmode="layer"
     id="layer1"
     transform="translate(0,-217.625)">
    <path
       style="fill:#000000;stroke-width:0.45003238"
       d="m 59.658226,294.92556 c -10.201008,-1.53196 -13.53018,-2.13108 -14.821343,-2.66725 -0.849963,-0.35294 -2.941265,-2.04593 -4.647339,-3.76218 -2.701716,-2.71783 -3.263654,-3.0881 -4.355211,-2.86979 -1.703842,0.34076 -3.581497,-0.71434 -5.889684,-3.30959 -2.79062,-3.13768 -4.197349,-6.42032 -3.932503,-9.17661 0.118919,-1.23761 0.569207,-2.60514 1.022861,-3.10642 0.964049,-1.06526 3.266655,-1.18478 4.522692,-0.23477 1.305724,0.98761 1.548619,0.8457 1.548619,-0.90473 0,-5.55154 3.099123,-13.36954 7.002428,-17.66465 l 2.294012,-2.52428 -1.05784,-4.97212 c -2.550736,-11.98914 -2.369098,-11.39524 -3.577989,-11.69866 -0.898028,-0.22538 -1.089479,-0.51999 -0.976222,-1.50226 0.123985,-1.07531 0.437814,-1.29425 2.616063,-1.82505 1.361349,-0.33174 2.52924,-0.65581 2.595315,-0.72018 0.06608,-0.0644 -0.117937,-1.14842 -0.408923,-2.40903 -0.519192,-2.24925 -0.55501,-2.28659 -1.920266,-2.0012 -2.995549,0.6262 -3.641368,0.44727 -3.641368,-1.00888 v -1.34205 l 5.625404,-1.22564 c 6.342342,-1.38184 7.319954,-1.31854 7.114175,0.46063 -0.120737,1.04388 -0.420174,1.25331 -2.31503,1.61913 l -2.176357,0.42019 0.300742,2.05499 c 0.165409,1.13025 0.466731,2.22753 0.669607,2.43839 0.202874,0.21087 1.342366,0.17576 2.532202,-0.0781 2.1242,-0.45304 3.775373,-0.10372 3.775373,0.79872 0,0.93368 -0.595499,1.82111 -1.222016,1.82111 -0.492301,0 -0.600595,0.2992 -0.399011,1.10237 0.152174,0.60631 0.782973,3.49214 1.401778,6.41296 0.618805,2.92084 1.219695,5.72952 1.335311,6.24154 0.193254,0.85586 0.546947,0.93388 4.384922,0.96735 4.045147,0.0353 12.608718,1.68082 14.771903,2.83852 1.461214,0.78201 1.110098,-0.84623 -1.82156,-8.44731 -1.485108,-3.85052 -2.700195,-7.64783 -2.700195,-8.43846 0,-2.32112 1.871918,-3.52308 4.406811,-2.82961 1.242566,0.33992 1.605599,0.25645 2.250163,-0.51735 0.751729,-0.90244 1.604719,-1.14529 3.517901,-1.00157 1.797088,0.135 4.944628,3.52861 7.778535,8.38667 1.59474,2.73381 3.052345,4.73557 3.448242,4.73557 1.214881,0 4.03518,1.6852 5.780482,3.45398 2.241845,2.27201 7.73141,9.93478 8.59096,11.99195 0.37374,0.89453 0.67954,2.44947 0.67954,3.45542 0,3.95827 -2.13728,6.50332 -8.027241,9.55879 -3.596239,1.86558 -3.774817,2.03244 -4.515048,4.21904 -1.097625,3.24229 -3.348124,6.54934 -6.281138,9.22994 l -2.5355,2.31731 1.566301,1.1701 c 4.098733,3.062 5.056191,4.81339 4.061564,7.42944 -1.439788,3.78695 -8.132799,3.44371 -11.720925,-0.60107 -1.420788,-1.6016 -1.883764,-1.8218 -4.72534,-2.2474 -1.732624,-0.25951 -3.796801,-0.58057 -4.587062,-0.71346 -1.407364,-0.23667 -1.432002,-0.2113 -1.201213,1.23654 0.561257,3.521 -2.260135,6.02124 -6.137582,5.43892 z m 2.444315,-3.43252 c 1.206501,-0.88222 0.576739,-2.17109 -1.792582,-3.66874 -1.506615,-0.95231 -2.008752,-1.53741 -1.91033,-2.22593 0.191505,-1.33972 2.353089,-1.40289 10.011402,-0.29261 7.362228,1.06736 9.105645,1.57479 9.481718,2.7597 0.626148,1.97281 4.910456,3.98428 6.581484,3.08998 1.372968,-0.73479 0.970168,-1.6352 -1.599419,-3.57524 -1.33939,-1.01125 -2.768977,-2.54191 -3.176859,-3.40146 -0.715362,-1.50752 -0.596643,-3.33968 0.216403,-3.33968 0.216727,0 1.587933,-1.10532 3.047124,-2.45627 2.850428,-2.639 5.222814,-6.54975 5.74455,-9.46959 0.38934,-2.17893 0.926684,-2.92521 2.106228,-2.92521 1.458771,0 7.003285,-3.14773 8.453126,-4.79902 0.950864,-1.08296 1.345794,-1.99905 1.345794,-3.12178 0,-1.97855 -0.24563,-2.44894 -4.347917,-8.3265 -3.600979,-5.15933 -6.372413,-7.60442 -8.619389,-7.60442 -1.241387,0 -1.609018,-0.43937 -4.800953,-5.7379 -3.220198,-5.34546 -5.291391,-7.80508 -5.986835,-7.10964 -0.160513,0.16052 0.05586,1.27079 0.480815,2.4673 0.957336,2.69544 0.969513,3.45792 0.06079,3.80664 -1.2497,0.47955 -1.508206,0.31713 -3.164271,-1.98799 -1.578377,-2.19699 -3.14463,-3.46901 -3.649614,-2.96403 -0.136477,0.13648 0.795733,2.88956 2.071575,6.11797 2.928202,7.40958 3.860895,11.21176 3.138971,12.79621 -0.7338,1.61051 -1.720033,1.77282 -4.494811,0.73972 -5.746426,-2.13949 -16.169336,-3.73509 -17.272139,-2.64411 -0.171672,0.16983 0.214975,2.8233 0.859215,5.89661 1.464884,6.98815 1.466875,7.43051 0.03588,7.97456 -0.911926,0.34672 -1.082023,0.64462 -0.86402,1.5132 0.198428,0.79061 0.01584,1.26054 -0.678772,1.74708 l -0.950213,0.66554 1.07855,4.99626 c 0.593202,2.74793 0.970825,5.10396 0.839162,5.23563 -0.86988,0.86987 -1.408347,-0.25688 -2.358875,-4.936 -0.979764,-4.82301 -1.122897,-5.17536 -2.102367,-5.17536 -0.792334,0 -1.113362,-0.31169 -1.304295,-1.26635 -0.217721,-1.08861 -0.430303,-1.24038 -1.514497,-1.08126 -1.456472,0.21377 -1.673748,-0.26201 -2.986886,-6.54052 -0.427083,-2.04203 -0.926539,-3.71278 -1.109901,-3.71278 -0.662902,0 -2.662286,2.79387 -3.989482,5.57477 -1.691491,3.54419 -2.593242,7.39331 -2.994865,12.78356 -0.254522,3.41598 -0.464715,4.26425 -1.147139,4.62947 -0.682872,0.36546 -1.234308,0.0741 -3.018346,-1.59462 -1.200555,-1.12299 -2.313712,-2.04179 -2.473681,-2.04179 -0.159969,0 -0.288952,0.65818 -0.286631,1.46262 0.0051,1.77132 2.043212,5.42078 4.158998,7.4472 1.404216,1.34488 1.660394,1.43385 2.728103,0.94737 1.038567,-0.47321 1.368591,-0.3918 2.781882,0.68617 0.881934,0.67269 2.66089,2.2949 3.953232,3.60495 1.292341,1.31005 2.754741,2.59111 3.249776,2.84682 0.796119,0.41122 3.625821,0.94003 12.375888,2.31277 1.361349,0.21356 2.588358,0.41198 2.726689,0.44093 0.13833,0.029 0.618807,-0.21598 1.067724,-0.54423 z m 26.152393,-38.71099 c -0.609516,-0.44567 -0.748431,-0.91977 -0.527475,-1.80012 0.240178,-0.95694 0.565588,-1.1951 1.632903,-1.1951 1.067314,0 1.392723,0.23816 1.6329,1.1951 0.220957,0.88035 0.08205,1.35445 -0.527473,1.80012 -0.455082,0.33278 -0.952525,0.60503 -1.105427,0.60503 -0.152905,0 -0.650347,-0.27225 -1.105428,-0.60503 z m -36.584782,6.16651 c 0.433156,-0.12196 0.787557,-0.40713 0.787557,-0.6337 0,-0.35366 -4.974253,-24.11306 -5.61362,-26.81333 -0.211815,-0.89457 -0.371138,-0.92886 -2.369596,-0.50997 -1.178382,0.24698 -2.201346,0.50114 -2.273254,0.56475 -0.111739,0.0989 3.902174,19.55596 5.367444,26.01818 0.525786,2.31885 0.626341,2.35253 4.101469,1.37407 z"
       id="path86"
       inkscape:connector-curvature="0" />
    <path
       style="fill:#000000;stroke-width:0.04812926"
       d="m 14.475844,268.7161 c -2.424737,-0.26635 -4.319586,-1.07138 -6.1816379,-2.62627 -1.299106,-1.08481 -2.312777,-2.36788 -3.037192,-3.84437 -0.529354,-1.07891 -0.830436,-2.04004 -1.017688,-3.24872 -0.121275,-0.78283 -0.121172,-2.73456 1.95e-4,-3.50669 0.301113,-1.91581 0.988997,-3.54398 2.146464,-5.08053 0.465607,-0.6181 1.481631,-1.66445 2.097774,-2.16039 1.7094669,-1.37596 3.6906199,-2.20706 5.8097139,-2.43718 0.694074,-0.0754 2.201592,-0.063 2.861221,0.0234 1.82358,0.23905 3.466006,0.85787 4.929934,1.85744 0.227399,0.15526 0.433263,0.2823 0.457479,0.2823 0.0242,0 0.823497,-0.77969 1.776179,-1.73265 l 1.732153,-1.73266 h -1.183765 c -0.742241,0 -1.240844,-0.0199 -1.336802,-0.0533 -0.27928,-0.0974 -0.294492,-0.1827 -0.294492,-1.65209 v -1.32519 l 0.140421,-0.15718 0.140426,-0.15718 3.818204,-0.0141 c 2.100019,-0.008 3.891024,-0.001 3.980011,0.0152 0.08899,0.0161 0.213523,0.0811 0.276742,0.1443 l 0.114945,0.11495 v 3.96628 3.96629 l -0.126889,0.12689 -0.126879,0.12689 h -1.408976 -1.40897 l -0.124603,-0.14808 -0.124603,-0.14808 v -1.23539 -1.23539 l -1.751906,1.75141 -1.751906,1.75141 0.300317,0.43822 c 1.438216,2.0987 2.093701,4.50862 1.94842,7.16349 -0.161211,2.94595 -1.350632,5.49364 -3.547632,7.5989 -0.922028,0.88352 -1.766839,1.48811 -2.837102,2.03036 -1.046939,0.53044 -2.167393,0.88451 -3.381791,1.06865 -0.604681,0.0917 -2.310393,0.13248 -2.887755,0.0691 z m 2.815562,-3.41361 c 1.355219,-0.28893 2.484349,-0.84215 3.573255,-1.7507 1.775989,-1.48184 2.817817,-3.51172 2.94277,-5.73367 0.109063,-1.93935 -0.308758,-3.57405 -1.287686,-5.03801 -1.29367,-1.93464 -3.210259,-3.21719 -5.395751,-3.61073 -0.792576,-0.14272 -2.157581,-0.14251 -2.945477,4.3e-4 -1.151539,0.20894 -2.27826,0.68011 -3.216105,1.3449 -0.924546,0.65536 -2.0027049,1.86141 -2.5382749,2.83935 -1.21875,2.22543 -1.29082,5.1399 -0.184057,7.44328 0.872177,1.81515 2.6411429,3.44982 4.4837919,4.14339 0.458718,0.17266 1.126315,0.34593 1.655716,0.42973 0.677193,0.10719 2.263983,0.0701 2.911818,-0.068 z"
       id="path103"
       inkscape:connector-curvature="0"
       sodipodi:nodetypes="cscccccsccsscscscccccsccccccccccccccsssccccscccccsccccc" />
    <path
       style="fill:#000000;stroke-width:0.04694066"
       d="m 116.16116,278.89336 -0.13722,-0.13721 v -1.85777 -1.85776 h -1.77675 c -1.09631,0 -1.82979,-0.0185 -1.91524,-0.0483 -0.28203,-0.0983 -0.29799,-0.18335 -0.29799,-1.58794 0,-0.80272 0.0185,-1.31027 0.0503,-1.38004 0.11127,-0.24422 0.11839,-0.2451 2.09787,-0.2599 l 1.84304,-0.0138 -0.0123,-1.62297 -0.0123,-1.62298 -0.63369,-0.13159 c -1.11498,-0.23153 -1.88421,-0.49442 -2.81646,-0.96255 -1.03648,-0.52045 -1.75648,-1.03744 -2.64466,-1.89892 -1.80265,-1.74849 -2.90743,-3.81602 -3.32348,-6.21964 -0.12413,-0.71713 -0.17142,-2.36966 -0.0898,-3.13642 0.2265,-2.12671 1.04437,-4.09713 2.38923,-5.75618 0.47931,-0.59131 1.36047,-1.45931 1.94773,-1.91866 1.66381,-1.30142 3.59793,-2.0679 5.71185,-2.26356 0.74008,-0.0685 2.14667,-0.0357 2.81552,0.0658 2.37403,0.35996 4.41557,1.40279 6.17312,3.15327 2.15042,2.14176 3.22854,4.57316 3.33994,7.53223 0.0902,2.39707 -0.52303,4.61675 -1.81447,6.56727 -1.72257,2.60165 -4.10031,4.21709 -7.11718,4.8354 l -0.65182,0.13359 -0.0123,1.623 -0.0123,1.623 1.87722,0.0138 1.87723,0.0138 0.1301,0.13015 0.13011,0.13015 v 1.35915 1.35915 l -0.13012,0.13015 -0.13011,0.13015 -1.87661,0.0133 -1.87661,0.0133 v 1.85622 1.85623 l -0.13721,0.13721 -0.13722,0.13721 h -1.34504 -1.34503 z m 2.73034,-13.59092 c 1.46358,-0.22063 2.72874,-0.79978 3.88716,-1.77945 1.4446,-1.22169 2.40012,-2.83386 2.73655,-4.61719 0.0855,-0.45333 0.1044,-0.72122 0.1051,-1.4914 10e-4,-0.97904 -0.0336,-1.28502 -0.23729,-2.10291 -0.52626,-2.11359 -2.16516,-4.09673 -4.21904,-5.10524 -1.10726,-0.54369 -2.20468,-0.79382 -3.48722,-0.79485 -2.06889,-10e-4 -3.87148,0.69683 -5.39375,2.09002 -1.29223,1.18266 -2.17522,2.74993 -2.48507,4.41088 -0.13488,0.72308 -0.12186,2.44293 0.0237,3.12156 0.35327,1.64768 1.05614,2.89108 2.33598,4.13238 1.29248,1.25357 2.60116,1.88252 4.52356,2.17402 0.32414,0.0491 1.80108,0.0239 2.21039,-0.0378 z"
       id="path103-6"
       inkscape:connector-curvature="0"
       sodipodi:nodetypes="ccccscscccccccccccccccscscccccccccccccccccccccssccccccccccc" />
  </g>
</svg>
