<?xml version="1.0" encoding="UTF-8" standalone="no"?>
<svg
   xmlns:dc="http://purl.org/dc/elements/1.1/"
   xmlns:cc="http://creativecommons.org/ns#"
   xmlns:rdf="http://www.w3.org/1999/02/22-rdf-syntax-ns#"
   xmlns:svg="http://www.w3.org/2000/svg"
   xmlns="http://www.w3.org/2000/svg"
   id="svg8"
   version="1.1"
   viewBox="0 0 194.36412 27.646624"
   height="27.646624mm"
   width="194.36412mm">
  <defs
     id="defs2" />
  <metadata
     id="metadata5">
    <rdf:RDF>
      <cc:Work
         rdf:about="">
        <dc:format>image/svg+xml</dc:format>
        <dc:type
           rdf:resource="http://purl.org/dc/dcmitype/StillImage" />
        <dc:title></dc:title>
      </cc:Work>
    </rdf:RDF>
  </metadata>
  <g
     transform="translate(-9.7623531,-12.33886)"
     id="layer1">
    <path
       id="path98"
       d="M 10.105116,38.186184 C 9.8874946,37.779568 9.7623531,33.298583 9.7623531,25.913187 c 0,-12.465219 0.056038,-12.91346 1.6159129,-12.91346 1.3302,0 1.433109,0.166473 6.651034,10.761216 l 4.729163,9.602316 5.008162,-10.098987 c 4.66394,-9.404835 5.072142,-10.106322 5.938765,-10.205691 1.913149,-0.219369 1.883886,-0.41869 1.883886,12.828925 0,13.026147 0.01161,12.93914 -1.703021,12.93914 -1.804322,0 -1.938366,-0.648821 -1.947667,-9.427655 l -0.0083,-7.955847 -4.047716,8.112302 c -5.490541,11.003953 -4.900114,10.994556 -10.405808,0.165562 l -4.040305,-7.946744 -0.01658,7.79029 c -0.01326,6.496827 -0.101466,7.912479 -0.531304,8.526193 -0.661652,0.944635 -2.299532,1.000787 -2.784049,0.09545 z m 65.795661,0.06789 c -0.941114,-1.039916 -0.878991,-23.885753 0.06731,-24.742109 1.117552,-1.011372 10.144234,-0.624427 12.657525,0.542588 5.861273,3.318781 7.056914,7.302572 7.060943,11.851695 0,5.837277 -2.033897,9.361589 -6.739883,11.678765 -2.846636,1.401653 -11.959896,1.86903 -13.045848,0.669061 z m 11.622837,-3.62385 C 94.246602,31.191955 94.1774,20.435811 87.41104,17.125314 85.969774,16.420173 84.976485,16.214721 82.293968,16.066905 l -3.328667,-0.183418 v 10.029727 10.029728 l 3.357531,-0.185009 c 2.815849,-0.155167 3.6549,-0.337095 5.200832,-1.127709 z m 15.679206,3.799109 c -0.29457,-0.294565 -0.39734,-3.531884 -0.39734,-12.516119 0,-8.984235 0.10279,-12.221556 0.39734,-12.516123 0.56531,-0.5653 16.85132,-0.5653 17.41662,0 0.55718,0.557183 0.49456,1.775941 -0.12302,2.393485 -0.43987,0.439872 -1.59178,0.520322 -7.45007,0.520322 h -6.92975 v 3.96517 3.965171 l 5.373,0.09099 c 5.37297,0.09099 5.37297,0.09099 5.70504,1.036202 0.64076,1.823944 -0.41099,2.200364 -6.14801,2.200364 h -4.93003 v 3.973373 3.973372 h 6.92975 c 5.85829,0 7.0102,0.08044 7.45007,0.520324 0.61755,0.617542 0.68017,1.836298 0.12302,2.39348 -0.5653,0.565303 -16.85131,0.565303 -17.41662,0 z m 24.28947,-0.338561 c -0.44238,-0.631587 -0.51544,-2.357869 -0.51544,-12.177558 0,-12.42265 0.0691,-12.91346 1.81624,-12.91346 1.80382,0 1.82601,0.141074 1.82601,11.612654 v 10.572008 l 5.87727,0.0048 c 6.57367,0.0055 7.46142,0.215385 7.64404,1.807596 0.19801,1.726317 -0.28822,1.829783 -8.59911,1.829783 -7.40961,0 -7.54205,-0.0121 -8.04901,-0.735904 z m 22.91088,0.378267 c -0.53532,-0.311797 -0.57943,-1.269759 -0.57943,-12.579378 0,-12.241876 0,-12.241876 0.82777,-12.619039 0.61925,-0.282144 1.03633,-0.282144 1.65558,0 0.82779,0.377163 0.82779,0.377163 0.82779,12.623844 0,11.769051 -0.025,12.26005 -0.64046,12.589447 -0.79343,0.424624 -1.34338,0.420709 -2.09125,-0.01492 z m 11.4069,-0.03969 c -0.29456,-0.294565 -0.39734,-3.531891 -0.39734,-12.516126 0,-12.744715 0.0194,-12.913458 1.49001,-12.913458 1.35144,0 1.49001,0.545105 1.49001,5.860724 0,2.786327 0.10644,5.066049 0.23639,5.066049 0.12998,0 2.78443,-2.533026 5.89872,-5.628944 5.74771,-5.713797 6.62658,-6.310502 7.70547,-5.231606 0.98701,0.987004 0.38252,1.848759 -5.09107,7.2579 l -5.48842,5.423778 5.48842,5.380702 c 5.52297,5.414578 6.12052,6.271527 5.09107,7.300981 -1.03021,1.030212 -1.90948,0.431005 -7.67677,-5.231609 -3.15314,-3.09592 -5.82992,-5.628944 -5.9484,-5.628944 -0.11854,0 -0.21541,2.354223 -0.21541,5.231606 0,5.489249 -0.1328,6.026283 -1.49001,6.026283 -0.38244,0 -0.87413,-0.178802 -1.09267,-0.397336 z m 20.62152,-0.153542 c -0.79237,-0.79236 -0.70849,-1.043586 4.45328,-13.339282 5.03366,-11.990489 5.1694,-12.234664 6.53458,-11.754176 0.79588,0.280116 1.42314,1.581496 5.79971,12.032551 2.69902,6.445153 4.90731,11.897864 4.90731,12.117132 0,0.869682 -1.29949,1.631264 -2.22691,1.305107 -0.7852,-0.276137 -1.3116,-1.381842 -4.77778,-10.035636 -2.14242,-5.34892 -3.94843,-9.778413 -4.01334,-9.843314 -0.065,-0.06491 -1.88672,4.217602 -4.0485,9.516676 -2.16177,5.299075 -4.13685,9.841037 -4.38905,10.093246 -0.61754,0.617526 -1.56868,0.578319 -2.2393,-0.0923 z"
       style="fill:#008fcd;fill-opacity:1;stroke-width:0.33111435" />
    <path
       id="path165"
       d="m 61.927907,37.239408 c -10.10325,6.34716 -23.298545,-4.923774 -18.580142,-15.870447 1.037507,-2.406997 1.265292,-2.416696 3.320029,-0.141323 1.704879,1.887943 1.704879,1.887943 2.133689,1.049999 0.549939,-1.074689 2.151229,-2.520702 3.276242,-2.958568 0.877201,-0.341416 0.877201,-0.341416 -0.827677,-2.22936 -2.054738,-2.275368 -2.021944,-2.500979 0.478034,-3.288456 6.674941,-2.102573 13.968493,2.099908 15.991265,9.214001 1.485036,5.222841 -0.93861,11.175476 -5.79144,14.224159 z m 3.827807,-6.406967 c 3.606737,-8.367574 -3.464568,-17.527699 -12.357206,-16.007479 -2.457733,0.420153 -2.456788,0.385193 -0.08207,3.040251 2.115269,2.364848 2.115269,2.364848 2.855872,5.855532 0.407339,1.919868 0.571525,3.643359 0.364863,3.82998 -0.206662,0.186631 -1.904544,-0.151884 -3.773062,-0.752256 -3.397305,-1.091578 -3.397305,-1.091578 -5.53494,-3.436238 -2.410465,-2.643955 -2.385132,-2.642985 -3.035343,-0.109988 -0.980557,3.819771 -0.04974,7.463682 2.678206,10.484554 5.63571,6.240855 15.602428,4.707942 18.883612,-2.904355 z M 54.546186,23.034884 c -0.653943,-2.553939 -0.726958,-2.68421 -1.462007,-2.608145 -1.271277,0.131558 -3.169471,2.168275 -3.357183,3.602172 -0.03084,0.235746 5.140731,2.025377 5.338026,1.847218 0.09318,-0.08419 -0.140262,-1.362724 -0.518836,-2.841245 z"
       style="fill:#e4510a;fill-opacity:1;stroke:#e4510a;stroke-width:1.83826649;stroke-miterlimit:4;stroke-dasharray:none;stroke-opacity:1" />
  </g>
</svg>
