<?xml version="1.0" encoding="UTF-8" standalone="no"?>
<!-- Created with Inkscape (http://www.inkscape.org/) -->

<svg
   xmlns:dc="http://purl.org/dc/elements/1.1/"
   xmlns:cc="http://creativecommons.org/ns#"
   xmlns:rdf="http://www.w3.org/1999/02/22-rdf-syntax-ns#"
   xmlns:svg="http://www.w3.org/2000/svg"
   xmlns="http://www.w3.org/2000/svg"
   xmlns:sodipodi="http://sodipodi.sourceforge.net/DTD/sodipodi-0.dtd"
   xmlns:inkscape="http://www.inkscape.org/namespaces/inkscape"
   width="210mm"
   height="297mm"
   viewBox="0 0 210 297"
   version="1.1"
   id="svg8"
   inkscape:version="0.92.4 (unknown)"
   sodipodi:docname="modelika_logo.svg">
  <defs
     id="defs2" />
  <sodipodi:namedview
     id="base"
     pagecolor="#ffffff"
     bordercolor="#666666"
     borderopacity="1.0"
     inkscape:pageopacity="0.0"
     inkscape:pageshadow="2"
     inkscape:zoom="0.4665165"
     inkscape:cx="-445.06739"
     inkscape:cy="954.95239"
     inkscape:document-units="mm"
     inkscape:current-layer="layer1"
     showgrid="false"
     inkscape:window-width="1366"
     inkscape:window-height="704"
     inkscape:window-x="0"
     inkscape:window-y="27"
     inkscape:window-maximized="1" />
  <metadata
     id="metadata5">
    <rdf:RDF>
      <cc:Work
         rdf:about="">
        <dc:format>image/svg+xml</dc:format>
        <dc:type
           rdf:resource="http://purl.org/dc/dcmitype/StillImage" />
        <dc:title></dc:title>
      </cc:Work>
    </rdf:RDF>
  </metadata>
  <g
     inkscape:label="Layer 1"
     inkscape:groupmode="layer"
     id="layer1">
    <path
       style="fill:#008fcd;fill-opacity:1;stroke-width:0.4238674"
       d="m -277.34229,102.8567 c -0.27858,-0.52052 -0.43878,-6.256735 -0.43878,-15.710958 0,-15.957025 0.0718,-16.530829 2.06856,-16.530829 1.70284,0 1.83456,0.213106 8.51416,13.775691 l 6.05392,12.292155 6.41107,-12.927956 c 5.97041,-12.039355 6.49296,-12.937345 7.60234,-13.064551 2.44908,-0.280818 2.41161,-0.535974 2.41161,16.422615 0,16.675083 0.0147,16.563703 -2.18008,16.563703 -2.30976,0 -2.48135,-0.83057 -2.49325,-12.068568 l -0.0108,-10.18447 -5.18158,10.384752 c -7.02857,14.086426 -6.27276,14.074396 -13.32073,0.211933 l -5.17208,-10.172817 -0.0203,9.972536 c -0.0169,8.316744 -0.12986,10.128954 -0.68014,10.914584 -0.84699,1.20925 -2.94367,1.28113 -3.56392,0.12218 z m 84.22661,0.0869 c -1.20474,-1.33122 -1.12523,-30.576724 0.0861,-31.672965 1.43061,-1.294684 12.98588,-0.799345 16.20319,0.69458 7.50317,4.248449 9.03374,9.348196 9.0389,15.171637 0,7.472439 -2.60364,11.983996 -8.6279,14.950268 -3.64405,1.79429 -15.31014,2.39259 -16.7003,0.85648 z m 14.87866,-4.638981 c 8.60626,-4.40141 8.51768,-18.170607 -0.14417,-22.408455 -1.84499,-0.902667 -3.11654,-1.165671 -6.55049,-1.354893 l -4.2611,-0.234799 v 12.839294 12.839296 l 4.29805,-0.236835 c 3.60465,-0.198629 4.67873,-0.431523 6.65771,-1.443608 z m 20.07134,4.863331 c -0.37709,-0.37708 -0.50865,-4.521249 -0.50865,-16.022184 0,-11.500935 0.13156,-15.645108 0.50865,-16.022188 0.72365,-0.723655 21.57177,-0.723655 22.29543,0 0.71326,0.713263 0.6331,2.273423 -0.15744,3.063956 -0.56309,0.56309 -2.03768,0.666077 -9.53701,0.666077 h -8.87095 v 5.07591 5.07591 l 6.8781,0.116466 c 6.87808,0.116466 6.87808,0.116466 7.30317,1.326467 0.82026,2.334874 -0.52611,2.816739 -7.87021,2.816739 h -6.31106 v 5.086409 5.08641 h 8.87095 c 7.49933,0 8.97392,0.102987 9.53701,0.666078 0.79054,0.79053 0.8707,2.35069 0.15744,3.06395 -0.72366,0.72366 -21.57178,0.72366 -22.29543,0 z m 31.09352,-0.4334 c -0.5663,-0.80851 -0.65983,-3.018364 -0.65983,-15.588784 0,-15.902531 0.0884,-16.530829 2.32503,-16.530829 2.30911,0 2.33751,0.180588 2.33751,14.865636 v 13.533481 l 7.52364,0.0062 c 8.41512,0.007 9.55153,0.275718 9.78532,2.313946 0.25347,2.2099 -0.36895,2.34235 -11.00793,2.34235 -9.48523,0 -9.65476,-0.0155 -10.30374,-0.94205 z m 29.328778,0.48423 c -0.68527,-0.39914 -0.74176,-1.62545 -0.74176,-16.103164 0,-15.671119 0,-15.671119 1.05967,-16.153936 0.7927,-0.361178 1.32663,-0.361178 2.11933,0 1.05967,0.482817 1.05967,0.482817 1.05967,16.160087 0,15.065843 -0.032,15.694383 -0.81987,16.116053 -1.01568,0.54357 -1.71968,0.53856 -2.67704,-0.019 z m 14.60224,-0.0508 c -0.37708,-0.37708 -0.50864,-4.521257 -0.50864,-16.022192 0,-16.314816 0.0249,-16.530829 1.9074,-16.530829 1.73,0 1.9074,0.697802 1.9074,7.502453 0,3.566845 0.13617,6.485172 0.30259,6.485172 0.16643,0 3.56442,-3.242586 7.55111,-7.205746 7.35778,-7.314369 8.48284,-8.078226 9.86396,-6.697105 1.26349,1.263489 0.48968,2.366642 -6.51721,9.291012 l -7.02586,6.943109 7.02586,6.887965 c 7.07008,6.931331 7.83504,8.028331 6.51721,9.346161 -1.31881,1.3188 -2.44437,0.55174 -9.82722,-6.697109 -4.03642,-3.96316 -7.46303,-7.205746 -7.61469,-7.205746 -0.15166,0 -0.27575,3.013698 -0.27575,6.697105 0,7.02692 -0.16998,7.71439 -1.9074,7.71439 -0.48957,0 -1.11901,-0.22889 -1.39876,-0.50864 z m 26.39811,-0.19655 c -1.01433,-1.01432 -0.90696,-1.33592 5.70076,-17.075936 6.4437,-15.349313 6.61747,-15.661886 8.36507,-15.046801 1.01881,0.358582 1.82179,2.024509 7.424339,15.403155 3.45508,8.250596 6.28197,15.230742 6.28197,15.511432 0,1.1133 -1.66352,2.08822 -2.85073,1.6707 -1.00514,-0.35349 -1.679,-1.76893 -6.11613,-12.846859 -2.742589,-6.847281 -5.054509,-12.51758 -5.137589,-12.600663 -0.0831,-0.08308 -2.41524,5.399054 -5.18258,12.182526 -2.76733,6.783473 -5.29568,12.597746 -5.61854,12.920606 -0.79051,0.79051 -2.00809,0.74032 -2.86657,-0.11816 z"
       id="path98"
       inkscape:connector-curvature="0"
       sodipodi:nodetypes="cssscscssccssccccccccscccsscccsccscssscccscszccsscccssscccscccssscccccssscssscsssssscssssscsssss" />
    <path
       style="fill:#e4510a;fill-opacity:1;stroke:#e4510a;stroke-width:2.35320902;stroke-miterlimit:4;stroke-dasharray:none;stroke-opacity:1"
       d="m -211.0027,100.96731 c -12.9334,8.12515 -29.82503,-6.303041 -23.78487,-20.316141 1.32813,-3.081253 1.61973,-3.09367 4.25005,-0.180917 2.18245,2.416802 2.18245,2.416802 2.73137,1.34413 0.704,-1.375737 2.75384,-3.22681 4.194,-3.787334 1.12292,-0.437055 1.12292,-0.437055 -1.05953,-2.853857 -2.63032,-2.912753 -2.58834,-3.201564 0.61195,-4.209632 8.54474,-2.691553 17.8814,2.688143 20.4708,11.795064 1.90102,6.685883 -1.20155,14.305995 -7.41377,18.208687 z m 4.90008,-8.201712 c 4.61706,-10.711532 -4.43508,-22.437628 -15.81877,-20.491558 -3.14619,0.537847 -3.14499,0.493095 -0.10496,3.891899 2.70781,3.027297 2.70781,3.027297 3.65586,7.495806 0.52145,2.45767 0.73163,4.663951 0.46708,4.902849 -0.26456,0.238911 -2.43806,-0.19443 -4.83,-0.96298 -4.34897,-1.397356 -4.34897,-1.397356 -7.0854,-4.398811 -3.08569,-3.38459 -3.05326,-3.383349 -3.88562,-0.1408 -1.25524,4.88978 -0.0637,9.554438 3.42843,13.421529 7.21441,7.989068 19.97305,6.026748 24.17338,-3.717934 z m -14.34959,-9.98184 c -0.83712,-3.269357 -0.9306,-3.436121 -1.87155,-3.338748 -1.6274,0.168417 -4.05732,2.77566 -4.29761,4.611226 -0.0395,0.301784 6.58078,2.592734 6.83334,2.364667 0.11935,-0.107776 -0.17957,-1.744454 -0.66418,-3.637145 z"
       id="path165"
       inkscape:connector-curvature="0"
       sodipodi:nodetypes="scsscscssssccssccsscccsc" />
    <path
       style="fill:#000000;stroke-width:0.42386743"
       d="m -197.22291,-36.839425 c -5.35176,-0.822989 -10.40471,-4.611632 -12.84531,-9.631259 -1.7983,-3.69859 -1.96136,-9.727855 -0.37094,-13.715604 1.37206,-3.440248 4.89666,-7.135868 8.47553,-8.886804 6.25335,-3.059392 14.47282,-1.587481 19.46697,3.486068 11.46038,11.642582 1.42578,31.231455 -14.72625,28.747599 z m 7.98596,-5.39859 c 9.55263,-4.873388 9.62763,-18.1382 0.12885,-22.785524 -11.6223,-5.686259 -23.06599,7.963227 -15.72905,18.760864 3.18155,4.68224 10.57327,6.589208 15.6002,4.02466 z m -63.51577,4.241321 c -0.27858,-0.520525 -0.43878,-6.256737 -0.43878,-15.710958 0,-15.957025 0.0718,-16.530829 2.06856,-16.530829 1.70284,0 1.83456,0.213106 8.51416,13.77569 l 6.05392,12.292156 6.41107,-12.927957 c 5.97041,-12.039354 6.49296,-12.937344 7.60234,-13.06455 2.44908,-0.280818 2.41161,-0.535974 2.41161,16.422615 0,16.675085 0.0147,16.563706 -2.18009,16.563706 -2.30975,0 -2.48135,-0.83057 -2.49324,-12.068572 l -0.0108,-10.18447 -5.18158,10.384753 c -7.02857,14.086423 -6.27276,14.074398 -13.32073,0.211932 l -5.17208,-10.172817 -0.0203,9.972537 c -0.0169,8.316745 -0.12986,10.128953 -0.68014,10.914585 -0.84699,1.209252 -2.94367,1.281131 -3.56392,0.122179 z m 84.22661,0.08688 c -1.20474,-1.33122 -1.12523,-30.576726 0.0861,-31.672967 1.43061,-1.294684 12.98588,-0.799345 16.20319,0.69458 3.35915,1.55979 6.0249,4.16594 7.66137,7.490065 1.31251,2.666098 1.37753,3.028707 1.37753,7.681571 0,7.472439 -2.60364,11.983998 -8.6279,14.950271 -3.64405,1.79429 -15.31014,2.392587 -16.7003,0.85648 z m 14.87866,-4.63898 c 8.60626,-4.401411 8.51768,-18.170609 -0.14417,-22.408457 -1.84499,-0.902666 -3.11654,-1.16567 -6.55049,-1.354892 l -4.2611,-0.234799 v 12.839294 12.839297 l 4.29805,-0.236837 c 3.60465,-0.198628 4.67873,-0.431522 6.65771,-1.443606 z m 20.07134,4.863335 c -0.37709,-0.377081 -0.50865,-4.521255 -0.50865,-16.022189 0,-11.500936 0.13156,-15.645108 0.50865,-16.022188 0.72365,-0.723655 21.57176,-0.723655 22.29542,0 0.71326,0.713263 0.6331,2.273423 -0.15744,3.063956 -0.56309,0.563089 -2.03768,0.666077 -9.53701,0.666077 h -8.87094 v 5.07591 5.075909 l 6.87809,0.116466 c 6.87808,0.116466 6.87808,0.116466 7.30317,1.326468 0.82026,2.334873 -0.52611,2.816738 -7.87021,2.816738 h -6.31105 v 5.08641 5.086411 h 8.87094 c 7.49933,0 8.97392,0.102986 9.53701,0.666078 0.79054,0.790532 0.8707,2.35069 0.15744,3.063954 -0.72366,0.723657 -21.57177,0.723657 -22.29542,0 z m 31.09351,-0.433409 c -0.5663,-0.8085 -0.65983,-3.018361 -0.65983,-15.58878 0,-15.902531 0.0884,-16.530829 2.32503,-16.530829 2.30911,0 2.33751,0.180588 2.33751,14.865636 v 13.533479 l 7.52364,0.0062 c 8.415119,0.007 9.551529,0.275717 9.785319,2.313942 0.25347,2.209906 -0.36895,2.342351 -11.007929,2.342351 -9.48523,0 -9.65476,-0.0155 -10.30374,-0.942049 z m 29.328779,0.48423 c -0.68527,-0.39914 -0.74176,-1.625446 -0.74176,-16.103161 0,-15.671118 0,-15.671118 1.05967,-16.153935 0.7927,-0.361178 1.32663,-0.361178 2.11933,0 1.05967,0.482817 1.05967,0.482817 1.05967,16.160087 0,15.065846 -0.032,15.694382 -0.81987,16.116049 -1.01568,0.543573 -1.71968,0.538567 -2.67704,-0.01902 z m 14.602241,-0.05082 c -0.37708,-0.377079 -0.50864,-4.521253 -0.50864,-16.022188 0,-16.314815 0.0249,-16.530828 1.9074,-16.530828 1.73,0 1.9074,0.697802 1.9074,7.502452 0,3.566845 0.13617,6.485172 0.30259,6.485172 0.16643,0 3.56442,-3.242586 7.55111,-7.205745 7.35778,-7.314369 8.48284,-8.078226 9.86396,-6.697105 1.26349,1.263489 0.48968,2.366642 -6.51721,9.291012 l -7.02586,6.943109 7.02586,6.887965 c 7.07008,6.931331 7.83504,8.028327 6.51721,9.346156 -1.31881,1.31881 -2.44437,0.551749 -9.82722,-6.697104 -4.03642,-3.963161 -7.46303,-7.205746 -7.61469,-7.205746 -0.15166,0 -0.27575,3.013698 -0.27575,6.697105 0,7.026921 -0.16998,7.714385 -1.9074,7.714385 -0.48957,0 -1.11901,-0.228885 -1.39876,-0.50864 z m 26.39811,-0.19654 c -1.01433,-1.014326 -0.90696,-1.335921 5.70076,-17.075941 6.4437,-15.349313 6.61747,-15.661886 8.36507,-15.046801 1.01881,0.358582 1.82179,2.024508 7.42434,15.403154 3.4550797,8.250597 6.2819697,15.230743 6.2819697,15.511431 0,1.113298 -1.66352,2.088222 -2.85073,1.670704 -1.00514,-0.353486 -1.679,-1.76893 -6.1161297,-12.846862 -2.74259,-6.84728 -5.05451,-12.51758 -5.13759,-12.600662 -0.0831,-0.08308 -2.41524,5.399053 -5.18258,12.182526 -2.76733,6.783474 -5.29568,12.597748 -5.61854,12.920611 -0.79051,0.790509 -2.00809,0.740317 -2.86657,-0.11816 z"
       id="path98-7"
       inkscape:connector-curvature="0"
       sodipodi:nodetypes="ssscsssssscssscscssccssccccccscsscccsscccsccscssscccscszccsscccssscccscccssscccccssscssscsssssscssssscsssss" />
  </g>
</svg>
