<?xml version="1.0" encoding="UTF-8" standalone="no"?>
<!-- Created with Inkscape (http://www.inkscape.org/) -->

<svg
   xmlns:dc="http://purl.org/dc/elements/1.1/"
   xmlns:cc="http://creativecommons.org/ns#"
   xmlns:rdf="http://www.w3.org/1999/02/22-rdf-syntax-ns#"
   xmlns:svg="http://www.w3.org/2000/svg"
   xmlns="http://www.w3.org/2000/svg"
   xmlns:sodipodi="http://sodipodi.sourceforge.net/DTD/sodipodi-0.dtd"
   xmlns:inkscape="http://www.inkscape.org/namespaces/inkscape"
   width="5987"
   height="3267"
   viewBox="0 0 1584.0604 864.39377"
   version="1.1"
   id="svg8"
   inkscape:version="0.92.1 r15371"
   sodipodi:docname="tocomake-front-plain.svg">
  <defs
     id="defs2" />
  <sodipodi:namedview
     id="base"
     pagecolor="#ffffff"
     bordercolor="#666666"
     borderopacity="1.0"
     inkscape:pageopacity="0.0"
     inkscape:pageshadow="2"
     inkscape:zoom="0.18188599"
     inkscape:cx="2651.5352"
     inkscape:cy="1887.4426"
     inkscape:document-units="mm"
     inkscape:current-layer="layer1"
     showgrid="false"
     inkscape:window-width="1846"
     inkscape:window-height="1058"
     inkscape:window-x="66"
     inkscape:window-y="-8"
     inkscape:window-maximized="1"
     units="px" />
  <metadata
     id="metadata5">
    <rdf:RDF>
      <cc:Work
         rdf:about="">
        <dc:format>image/svg+xml</dc:format>
        <dc:type
           rdf:resource="http://purl.org/dc/dcmitype/StillImage" />
        <dc:title />
      </cc:Work>
    </rdf:RDF>
  </metadata>
  <g
     inkscape:label="Layer 1"
     inkscape:groupmode="layer"
     id="layer1"
     transform="translate(0,567.39379)">
    <path
       style="fill:#f9b248;fill-opacity:1;stroke-width:1.83953035"
       d="m 1274.8802,95.133319 c -2.9731,-0.80482 -10.9357,-6.951161 -17.695,-13.658645 l -12.29,-12.195404 -11.8847,1.272724 c -13.1515,1.408389 -18.028,-1.018121 -18.028,-8.96987 0,-6.229696 3.5381,-8.514373 13.1868,-8.514373 6.2789,0 8.5121,-0.653537 7.8572,-2.299412 -1.5219,-3.828565 -19.5903,-10.600217 -28.2517,-10.588398 -4.4698,0.0054 -13.3183,-0.892915 -19.6632,-1.99789 l -11.5364,-2.008939 -8.6539,6.607778 -8.6538,6.607779 h 5.498 c 6.151,0 11.5866,4.857479 11.5866,10.354231 0,6.496833 -3.7377,8.041072 -19.4639,8.041072 -11.7906,0 -17.7853,1.042963 -27.685,4.816882 -18.0995,6.899581 -24.2206,8.425864 -28.4319,7.089304 -2.783,-0.883387 -3.2196,-1.772062 -1.7443,-3.54983 4.4802,-5.398724 -3.5152,-11.398326 -8.5205,-6.39315 -1.391,1.391206 -2.2857,1.123248 -3.0694,-0.919764 -0.7182,-1.870452 -0.083,-2.882954 1.8097,-2.882954 1.8974,0 2.5982,-1.124374 2.006,-3.219193 -0.5007,-1.77053 -1.2182,-4.405626 -1.5943,-5.855716 -0.3825,-1.464416 1.5413,-3.746803 4.3223,-5.134116 4.068,-2.029172 7.9579,-2.104958 20.7416,-0.403943 8.6539,1.151615 17.0714,1.580944 18.7052,0.954028 3.0613,-1.174768 2.9827,-6.032455 -0.5006,-30.957507 l -1.2229,-8.74541 8.9889,4.091713 c 12.8177,5.834725 37.6557,5.693171 52.9659,-0.30174 14.2813,-5.592146 25.1448,-16.513361 30.4565,-30.619059 3.4797,-9.2412 3.9699,-13.478713 3.2802,-28.341398 -0.8997,-19.390055 -2.8603,-26.008608 -16.5249,-55.779631 -5.1039,-11.119368 -9.6696,-23.677538 -10.1459,-27.907138 -0.4797,-4.22951 0.5423,-17.9654 2.2569,-30.52415 3.2398,-23.68583 2.6899,-41.28566 -1.533,-49.07538 -2.202,-4.06169 -2.3598,-3.96038 -6.2323,4.01093 -4.6047,9.47863 -13.8363,15.57894 -30.8186,20.36557 -14.585,4.11105 -31.2573,13.1 -37.037,19.96912 -3.3935,4.03264 -5.0482,4.90051 -6.1002,3.19895 -1.1493,-1.86009 -2.5217,-1.77784 -6.7459,0.40395 -2.9168,1.50661 -12.731,5.73342 -21.8102,9.39304 -9.0795,3.65955 -25.2211,11.95936 -35.871,18.44395 -21.864,13.3133 -37.0394,19.88478 -44.0399,19.07098 -4.1605,-0.48389 -4.825,-1.51544 -5.3152,-8.24843 -1.006,-13.8396 3.1662,-19.60363 38.83,-53.64487 7.7858,-7.43208 14.1563,-14.07915 14.1563,-14.77134 0,-1.69864 -36.1556,-7.73854 -53.5487,-8.94537 -22.26774,-1.54506 -32.96632,2.27919 -58.06925,20.75645 -12.73077,9.37058 -22.37952,-18.89559 -15.35472,-44.98319 6.39154,-23.7349 24.30753,-46.22623 45.24097,-56.79347 22.999,-11.60994 35.4504,-14.20207 67.9355,-14.14275 32.527,0.0555 47.3006,2.4329 79.0995,12.70871 10.1174,3.26943 23.2236,6.87969 29.1243,8.02283 23.8152,4.61316 43.0564,18.205 52.2372,36.89958 l 5.0963,10.37774 v 46.90806 c 0,63.82272 -1.1611,57.65205 10.8864,56.65296 24.9798,-2.07152 38.4511,-29.94646 28.6729,-59.33032 -5.6976,-17.11971 -4.3001,-22.7866 8.8472,-35.88596 11.4209,-11.37961 40.2713,-33.43165 54.2097,-41.43515 10.5937,-6.08321 34.0168,-31.04984 50.2434,-53.55367 11.4459,-15.87533 26.4761,-42.91299 26.4761,-47.62938 0,-3.72157 5.0287,-6.85404 8.9868,-5.59793 2.0045,0.63616 5.4577,4.9035 7.6749,9.48293 3.3957,7.01437 3.9004,10.57908 3.2029,22.6239 -0.7459,12.88859 -1.9166,16.54624 -11.8796,37.11712 -6.0786,12.55084 -16.6688,31.09755 -23.533,41.21497 -6.8643,10.11743 -10.9338,17.11907 -9.0433,15.55919 16.8036,-13.86589 31.9838,-27.36449 47.0924,-41.876 11.3688,-10.92039 19.0717,-16.96953 21.108,-16.57733 10.2432,1.97258 10.2244,28.5426 0,50.14545 -7.0409,14.82625 -23.4572,33.57869 -43.0314,49.15422 -6.4596,5.14024 -11.3988,9.69208 -10.9762,10.11512 0.9784,0.97811 25.3965,-8.59751 44.1378,-17.30865 12.0028,-5.57887 14.6684,-6.24841 16.068,-4.0363 7.8995,12.48476 -15.331,46.14229 -41.495,60.12097 l -11.037,5.89689 15.176,0.0487 15.1766,0.0487 v 4.94486 c 0,15.74162 -33.8616,37.069924 -59.5187,37.488806 -9.0758,0.148086 -7.7437,0.851607 16.1202,8.511773 18.5704,5.960982 22.1606,9.271782 16.652,15.358328 -10.4802,11.580873 -37.9379,15.381065 -58.7921,8.137269 -2.0232,-0.70297 2.1157,2.191033 9.1982,6.430837 17.3071,10.361535 19.6334,12.590943 17.43,16.707481 -4.3933,8.209436 -26.7199,9.227499 -43.1336,1.966878 l -8.5037,-3.761678 7.4643,8.673244 7.4642,8.673243 -3.901,3.219168 c -2.1455,1.77061 -5.7317,3.219174 -7.9685,3.219174 -8.0572,0 -21.2441,-5.942276 -29.9028,-13.47468 -6.4436,-5.605569 -8.0441,-6.437789 -5.9249,-3.08109 13.1994,20.907928 14.3,24.860042 7.191,25.817685 -7.1333,0.960844 -12.9116,-0.435927 -19.0585,-4.607669 -3.682,-2.498888 -6.6952,-4.185503 -6.6952,-3.748049 0,2.142566 8.2513,22.5880955 10.538,26.1115088 4.0068,6.1744232 18.2588,7.1870672 45.1652,3.2090223 28.8378,-4.2635167 33.2653,-4.3389514 34.0161,-0.579845 0.7745,3.8819639 -7.6638,13.8218229 -14.9772,17.6421829 -3.1677,1.654712 -10.312,4.477657 -15.8768,6.273367 l -10.1175,3.264989 7.8182,0.09873 c 8.9946,0.114022 9.7788,1.968404 3.066,7.248592 -8.309,6.535677 -24.6864,11.670072 -34.3393,10.765266 -7.0624,-0.661882 -8.3549,-0.355975 -6.7363,1.594299 1.5504,1.868072 0.8315,2.707735 -3.1822,3.715029 -4.5414,1.139938 -3.705,1.600401 6.7363,3.709738 14.6386,2.957551 25.3623,7.595144 27.7116,11.984564 1.3953,2.607911 1.1805,3.081579 -1.0165,2.238655 -3.5375,-1.357342 -6.0946,4.645004 -2.8366,6.658539 1.7596,1.087588 1.3898,1.973333 -1.4608,3.498797 -4.0652,2.175675 -8.9187,1.977526 -12.9367,-0.528387 -3.9128,-2.4407 -7.1138,1.901934 -4.4941,6.097319 1.7654,2.826838 1.5922,3.588355 -0.9656,4.242933 -1.7145,0.43871 -5.5503,0.13906 -8.5232,-0.665358 z M 1019.7753,-118.36201 c 3.6605,-2.21788 13.2781,-9.15471 21.3722,-15.41514 8.0934,-6.26049 22.5794,-16.0823 32.1912,-21.82622 18.0015,-10.75791 33.2506,-23.93043 37.8761,-32.71782 4.3003,-8.16926 -1.9654,-4.40654 -8.5162,5.1143 -6.4393,9.35981 -16.561,17.78818 -33.0391,27.51236 -6.5763,3.88085 -19.4071,12.59171 -28.512,19.35738 -9.1058,6.7656 -19.246,13.6786 -22.5346,15.36208 l -5.9785,3.06094 v -5.20565 c 0,-8.32611 9.4429,-20.96648 26.0039,-34.80811 17.4611,-14.59453 30.7082,-28.55422 27.9648,-29.46876 -3.201,-1.06687 -51.7147,47.71136 -54.8016,55.1004 -3.3289,7.96658 -3.7537,17.96671 -0.7642,17.96671 1.146,0 5.0775,-1.81461 8.738,-4.03247 z m 35.1678,-31.87768 c 0,-1.74023 -7.2755,1.77018 -8.0944,3.90582 -0.7767,2.02311 -0.01,1.9378 3.5512,-0.39283 2.4993,-1.63733 4.5432,-3.2182 4.5432,-3.51299 z m 14.7164,-9.38727 c 0,-1.30709 -10.7188,4.66405 -11.9509,6.65742 -0.6324,1.02063 1.8001,0.1168 5.4022,-2.00818 3.6015,-2.12518 6.5487,-4.21735 6.5487,-4.64924 z m -12.8712,-1.15072 c 2.7087,-3.69945 3.1529,-4.98429 1.1653,-3.37045 -3.016,2.44973 -7.5766,9.34896 -6.1801,9.34896 0.3547,0 2.608,-2.69029 5.0148,-5.97851 z m 9.1918,-11.49703 c 2.3764,-2.52939 3.9068,-4.59884 3.4005,-4.59884 -0.5075,0 -2.8636,2.06945 -5.24,4.59884 -2.3757,2.52935 -3.9059,4.59884 -3.4005,4.59884 0.5075,0 2.8643,-2.06949 5.24,-4.59884 z m 110.9106,-34.06007 c 5.8938,-4.63611 9.3846,-14.84135 7.8593,-22.97438 -1.184,-6.30944 -10.0625,-15.62698 -14.8909,-15.62698 -16.2406,0 -23.2084,25.57929 -10.1474,37.25047 6.7378,6.02043 10.8335,6.34247 17.179,1.35089 z m -23.8173,-4.64938 c -0.5978,-1.56127 -1.4844,-2.44411 -1.9662,-1.96195 -0.4796,0.48251 -0.3336,1.75955 0.3337,2.83866 1.814,2.93488 2.8743,2.36471 1.6304,-0.87671 z m -1.9411,-22.91737 c 0.5283,-2.02487 0.2155,-3.21772 -0.705,-2.65073 -0.9178,0.56663 -1.668,2.2237 -1.668,3.68159 0,3.80735 1.2502,3.26443 2.373,-1.03086 z m 34.6459,-4.16709 c -1.8167,-1.80321 -2.028,-1.59192 -1.0296,1.02981 0.6883,1.81414 1.7194,2.83511 2.2853,2.26876 0.5701,-0.56663 0,-2.05072 -1.2557,-3.29857 z m -0.2294,-3.99967 c 0,-0.44635 -0.828,-1.32286 -1.8395,-1.94809 -1.0118,-0.62504 -1.8398,-0.26004 -1.8398,0.81115 0,1.07146 0.828,1.9481 1.8398,1.9481 1.0115,0 1.8395,-0.365 1.8395,-0.81116 z m -192.13894,-32.18684 c 0.96156,-0.94931 9.19824,-3.92501 18.30404,-6.61273 12.9178,-3.81306 22.2135,-5.1348 42.3087,-6.01569 20.6295,-0.90446 23.9234,-1.38662 16.5553,-2.4238 -24.7145,-3.47919 -57.9636,-0.18982 -78.84357,7.80069 -11.10675,4.25031 -12.85527,6.40408 -6.23435,7.67931 2.27691,0.43871 4.5942,0.90995 5.15112,1.04767 0.55619,0.13768 1.79794,-0.52629 2.75876,-1.47545 z m 89.29394,306.845102 c -2.1163,-2.271393 -3.8483,-4.875129 -3.8483,-5.786055 0,-0.910925 -2.5466,0.486676 -5.6592,3.106197 -10.8946,9.167079 -25.6122,4.827368 -25.6122,-7.552217 v -4.137748 l -8.5516,4.547042 c -10.2968,5.474794 -24.0182,6.259183 -25.853,1.47798 -0.6467,-1.688018 0.1181,-5.327819 1.7033,-8.08854 l 2.8806,-5.019399 -8.202,3.628053 c -9.2935,4.111188 -28.97969,5.032682 -35.29608,1.652207 -5.63854,-3.01783 -4.86886,-8.8227259 2.03708,-15.3639694 4.11316,-3.8957248 4.83068,-5.2261718 2.29995,-4.2641399 -18.67528,7.0980704 -50.47628,2.414069 -56.19826,-8.2773027 -1.6352,-3.055855 -1.37241,-4.553161 1.32521,-7.540186 4.35297,-4.820624 20.30286,-12.762109 36.01767,-17.933837 6.82879,-2.247482 12.41662,-4.354455 12.41662,-4.6822 0,-0.327463 -6.43881,-0.154345 -14.30905,0.385171 -29.33147,2.010403 -55.86106,-6.505709 -69.87946,-22.431518 -11.0073,-12.50501 -13.27872,-28.754721 -3.62648,-25.943182 27.3945,7.979655 32.43578,8.755772 57.4629,8.846917 37.26707,0.135585 56.55206,-3.619988 75.4207,-14.688149 37.2666,-21.861196 41.9992,-22.807926 60.9734,-12.197216 10.5886,5.92164 13.013,6.56524 21.9401,5.82493 9.4986,-0.78773 9.97,-0.62712 8.8103,3.00037 -13.2642,41.480586 -8.8757,78.240349 12.0495,100.9414893 8.1643,8.8574847 9.3491,14.4281537 4.5316,21.3063207 -2.9584,4.224094 -9.2947,4.774388 -17.2486,1.498135 -1.8265,-0.752332 -4.0116,0.863437 -6.4622,4.77836 -4.8016,7.669219 -13.4624,8.988469 -19.1225,2.912765 z"
       id="path4524"
       inkscape:connector-curvature="0"
       sodipodi:nodetypes="ccccssccccccssscccccscccccccccccccccccccccccccscccccscccscccccscccccccccccccscccscccccccccccsccccsccccccccccccccccccccccccccccccscccscsccssccsccsccscscccscccccccccscccccscssscccccccccscsccccccccccccscscczccccccccc" />
    <path
       style="opacity:1;fill:#000000;fill-opacity:1;fill-rule:nonzero;stroke:#000000;stroke-width:1.45665824;stroke-linecap:round;stroke-linejoin:round;stroke-miterlimit:4;stroke-dasharray:none;stroke-dashoffset:0;stroke-opacity:0;paint-order:stroke markers fill"
       d="m 1165.2549,-206.90047 c -5.2652,-2.08841 -8.0189,-7.99836 -7.5846,-16.2775 0.3337,-6.41295 2.207,-10.17445 6.1638,-12.39828 5.2775,-2.96621 11.2336,-1.34626 14.5359,3.95348 1.541,2.47348 1.9257,3.90135 2.1651,8.03763 0.3188,5.5208 -0.3855,8.61767 -2.8227,12.41224 -2.6314,4.09565 -8.1404,5.98502 -12.4575,4.27243 z m 13.3603,-13.54169 c 2.0526,-2.05252 -0.7768,-4.32631 -3.9041,-3.13734 -1.8657,0.70937 -2.2312,1.88323 -0.977,3.13734 0.9933,0.99373 3.8879,0.99373 4.8811,0 z m -5.1532,-6.65252 c 2.9518,-2.06735 1.0023,-6.06583 -2.9567,-6.06583 -1.2425,0 -2.7873,0.47811 -3.4336,1.06303 -1.3334,1.2072 -1.5558,4.08002 -0.4004,5.23193 1.092,1.0914 5.1021,0.95622 6.7944,-0.22905 z"
       id="path4526"
       inkscape:connector-curvature="0" />
    <path
       style="fill:#ff6600;stroke-width:0.25785801"
       d="m 964.98829,-103.37278 c -1.27649,-0.73684 -6.2657,-3.63849 -11.08792,-6.44822 -4.82164,-2.80981 -9.8115,-5.70993 -11.08794,-6.4449 -1.27585,-0.73536 -3.71268,-2.15257 -5.41466,-3.15026 l -3.09461,-1.81393 v -22.75459 -22.7546 l 3.99704,-2.3241 c 2.19842,-1.2783 5.09901,-2.96632 6.44638,-3.75112 2.16641,-1.26209 3.52497,-2.04863 6.31781,-3.65844 1.93422,-1.11497 11.7498,-6.83713 13.02143,-7.59136 0.78006,-0.46233 3.06955,-1.80056 5.08789,-2.9736 l 3.67023,-2.13276 3.42135,1.99351 c 5.66077,3.29836 6.55561,3.82035 12.18851,7.1126 2.97783,1.74057 7.44552,4.34215 9.92762,5.78133 2.48128,1.43911 6.43668,3.73818 8.78938,5.10879 l 4.2764,2.49222 0.174,13.96727 c 0.097,7.68216 0.1737,17.82719 0.1737,22.54456 v 8.57716 l -1.4822,0.88118 c -2.1789,1.29505 -8.1839,4.81394 -14.63377,8.57576 -3.11959,1.81984 -6.65916,3.88572 -7.86476,4.59092 -1.20551,0.70492 -3.2357,1.88365 -4.51215,2.61875 -11.47523,6.800771 -8.43486,7.254294 -18.30816,1.55383 z m 3.93443,-22.76003 -0.0695,-15.66487 -3.30315,-1.934 c -4.51988,-2.64628 -10.33568,-6.0547 -12.97972,-7.60679 -6.436,-3.77857 -9.74887,-5.66995 -10.08331,-5.7563 -0.25724,-0.0695 -0.31986,3.19533 -0.31986,15.673 0,14.76988 0,15.76695 0.45192,15.9249 0.25033,0.0925 1.19588,0.62156 2.10527,1.17512 0.90937,0.55343 2.82412,1.67529 4.25426,2.49258 1.43081,0.8174 5.15393,2.97269 8.27426,4.78968 8.86447,5.16206 11.33056,6.56564 11.54125,6.56869 0.10428,0.002 0.16683,-7.0464 0.13207,-15.66201 z m 11.66641,13.63089 c 1.34737,-0.79467 2.65167,-1.56133 2.89853,-1.70379 1.52605,-0.88041 8.69416,-5.05464 12.1857,-7.09612 2.26936,-1.32676 5.02534,-2.92835 6.12454,-3.55923 l 1.9982,-1.14696 v -15.6091 c 0,-8.58509 0,-15.64083 -0.077,-15.67948 -0.069,-0.0348 -1.8661,0.98274 -4.06101,2.26987 -2.19494,1.28713 -4.33911,2.54047 -4.76463,2.78525 -0.42405,0.24475 -4.19654,2.45031 -8.38062,4.90123 -4.18334,2.45083 -8.04201,4.69303 -8.57315,4.9826 l -0.96711,0.527 v 15.69061 15.69052 l 0.57708,-0.30382 c 0.31978,-0.16687 1.68249,-0.95383 3.02991,-1.74851 z m -6.1885,-36.94357 c 2.02043,-1.14732 3.9331,-2.25778 4.3836,-2.54582 0.57012,-0.36292 14.07473,-8.24594 17.40501,-10.15824 0.28509,-0.16338 1.18262,-0.67995 1.99817,-1.14912 0.81556,-0.4693 1.42526,-0.94694 1.35435,-1.06166 -0.11126,-0.17729 -1.21598,-0.85314 -3.61043,-2.20605 -0.28509,-0.16059 -2.66219,-1.54651 -5.28606,-3.08067 -2.62388,-1.53402 -6.51108,-3.7977 -8.63784,-5.03032 -2.1275,-1.23261 -4.99335,-2.89657 -6.36852,-3.69778 -1.37522,-0.80114 -2.65173,-1.44962 -2.83664,-1.44098 -0.18778,0.007 -1.46423,0.67578 -2.84294,1.48262 -3.0563,1.78897 -19.16543,11.16122 -20.24927,11.78139 -2.69695,1.54298 -3.41654,2.00373 -3.41654,2.18866 0,0.11959 0.49363,0.5006 1.09644,0.84787 3.04451,1.75337 11.18389,6.5142 17.85624,10.4453 4.11315,2.42305 7.53585,4.41106 7.60677,4.41773 0.0765,0.007 0.76761,-0.35041 1.54766,-0.79293 z"
       id="path4543"
       inkscape:connector-curvature="0"
       sodipodi:nodetypes="cccccccsccccccsscccscccccccccccscccscccccccscscccccccccccccccccscccsccsc" />
  </g>
</svg>
