<?xml version="1.0" encoding="UTF-8" standalone="no"?>
<svg
   xmlns:dc="http://purl.org/dc/elements/1.1/"
   xmlns:cc="http://creativecommons.org/ns#"
   xmlns:rdf="http://www.w3.org/1999/02/22-rdf-syntax-ns#"
   xmlns:svg="http://www.w3.org/2000/svg"
   xmlns="http://www.w3.org/2000/svg"
   xmlns:sodipodi="http://sodipodi.sourceforge.net/DTD/sodipodi-0.dtd"
   xmlns:inkscape="http://www.inkscape.org/namespaces/inkscape"
   id="svg8"
   version="1.1"
   viewBox="0 0 53.193016 25.994301"
   height="25.994301mm"
   width="53.193016mm"
   sodipodi:docname="fatale-logo-plain.svg"
   inkscape:version="0.92.1 r15371">
  <sodipodi:namedview
     pagecolor="#ffffff"
     bordercolor="#666666"
     borderopacity="1"
     objecttolerance="10"
     gridtolerance="10"
     guidetolerance="10"
     inkscape:pageopacity="0"
     inkscape:pageshadow="2"
     inkscape:window-width="1846"
     inkscape:window-height="1058"
     id="namedview1359"
     showgrid="false"
     inkscape:zoom="1.6812201"
     inkscape:cx="3.8662459"
     inkscape:cy="49.123088"
     inkscape:window-x="66"
     inkscape:window-y="-8"
     inkscape:window-maximized="1"
     inkscape:current-layer="text4494" />
  <defs
     id="defs2" />
  <metadata
     id="metadata5">
    <rdf:RDF>
      <cc:Work
         rdf:about="">
        <dc:format>image/svg+xml</dc:format>
        <dc:type
           rdf:resource="http://purl.org/dc/dcmitype/StillImage" />
        <dc:title />
      </cc:Work>
    </rdf:RDF>
  </metadata>
  <g
     transform="translate(-73.837799,-39.352071)"
     id="layer1"
     inkscape:export-xdpi="299.87396"
     inkscape:export-ydpi="299.87396">
    <g
       aria-label="fatale"
       style="font-style:normal;font-weight:normal;font-size:10.58333302px;line-height:1.25;font-family:sans-serif;letter-spacing:0px;word-spacing:0px;fill:#000000;fill-opacity:1;stroke:none;stroke-width:0.26458332"
       id="text22">
      <g
         aria-label="TocoMake"
         style="font-style:normal;font-weight:normal;font-size:8.22765923px;line-height:125%;font-family:sans-serif;letter-spacing:0px;word-spacing:0px;fill:#000000;fill-opacity:1;stroke:none;stroke-width:0.54851067px;stroke-linecap:butt;stroke-linejoin:miter;stroke-opacity:1"
         id="text4494">
        <path
           d="m 95.518894,49.684747 v 0.550386 h -1.345833 v 4.933381 h -1.687312 v -4.933381 h -1.353868 v -0.550386 z"
           style="font-style:normal;font-variant:normal;font-weight:normal;font-stretch:normal;font-family:'Britannic Bold';-inkscape-font-specification:'Britannic Bold, ';stroke-width:0.54851067px"
           id="path4508" />
        <path
           d="m 97.684279,51.014511 q 2.008706,0 2.008706,2.121193 0,2.121193 -2.008706,2.121193 -2.012723,0 -2.012723,-2.121193 0,-2.121193 2.012723,-2.121193 z m -0.004,0.357549 q -0.486107,0 -0.486107,1.763644 0,1.763644 0.486107,1.763644 0.490124,0 0.490124,-1.763644 0,-1.763644 -0.490124,-1.763644 z"
           style="font-style:normal;font-variant:normal;font-weight:normal;font-stretch:normal;font-family:'Britannic Bold';-inkscape-font-specification:'Britannic Bold, ';stroke-width:0.54851067px"
           id="path4510" />
        <path
           d="m 103.18813,53.360679 0.61868,0.188818 0.004,0.164714 q 0,1.542686 -1.68731,1.542686 -2.00067,0 -2.00067,-2.028793 0,-1.016405 0.58252,-1.619017 0.58253,-0.606629 1.56278,-0.606629 1.41011,0 1.41011,1.277537 l -0.68698,0.333445 0.008,-0.385671 q 0,-0.867761 -0.58252,-0.867761 -0.77134,0 -0.77134,1.703383 0,1.052561 0.16471,1.446268 0.16471,0.389689 0.61065,0.389689 0.81553,0 0.81553,-1.05658 0,-0.148644 -0.0482,-0.482089 z"
           style="font-style:normal;font-variant:normal;font-weight:normal;font-stretch:normal;font-family:'Britannic Bold';-inkscape-font-specification:'Britannic Bold, ';stroke-width:0.54851067px"
           id="path4512" />
        <path
           d="m 106.15298,51.014511 q 2.00871,0 2.00871,2.121193 0,2.121193 -2.00871,2.121193 -2.01272,0 -2.01272,-2.121193 0,-2.121193 2.01272,-2.121193 z m -0.004,0.357549 q -0.4861,0 -0.4861,1.763644 0,1.763644 0.4861,1.763644 0.49013,0 0.49013,-1.763644 0,-1.763644 -0.49013,-1.763644 z"
           style="font-style:normal;font-variant:normal;font-weight:normal;font-stretch:normal;font-family:'Britannic Bold';-inkscape-font-specification:'Britannic Bold, ';stroke-width:0.54851067px"
           id="path4514" />
        <path
           d="m 113.94274,49.684747 v 5.483767 h -1.53465 v -3.816541 l -1.06863,3.816541 h -0.88785 l -1.09675,-3.752262 v 3.752262 h -0.53432 v -5.483767 h 1.615 l 0.94008,3.310348 0.93605,-3.310348 z"
           style="font-style:normal;font-variant:normal;font-weight:normal;font-stretch:normal;font-family:'Britannic Bold';-inkscape-font-specification:'Britannic Bold, ';stroke-width:0.54851067px"
           id="path4516" />
        <path
           d="m 118.90826,55.023887 q -0.53833,0.208906 -1.04854,0.208906 -0.75527,0 -0.93204,-0.470037 -0.36558,0.490124 -1.05256,0.490124 -1.28156,0 -1.28156,-1.189154 0,-0.903918 1.17309,-1.269502 1.07666,-0.337463 1.07666,-0.811517 0,-0.622699 -0.61868,-0.622699 -0.7151,0 -0.7151,0.602612 0,0.188818 0.11249,0.498159 l -0.72715,-0.14061 q -0.0281,-0.188818 -0.0281,-0.353532 0,-0.964179 1.75962,-0.964179 1.67125,0 1.67125,0.899901 v 2.458655 q 0,0.377637 0.24506,0.377637 0.0763,0 0.22497,-0.08436 z m -2.077,-2.289924 q -0.13659,0.156679 -0.31737,0.261132 -0.45397,0.265149 -0.45397,0.891865 0,0.803482 0.31336,0.803482 0.45798,0 0.45798,-0.795447 z"
           style="font-style:normal;font-variant:normal;font-weight:normal;font-stretch:normal;font-family:'Britannic Bold';-inkscape-font-specification:'Britannic Bold, ';stroke-width:0.54851067px"
           id="path4518" />
        <path
           d="m 122.78105,51.118963 -0.83562,1.048545 1.20522,3.001006 h -1.5467 l -0.70305,-1.783731 -0.26917,0.329428 v 1.454303 h -1.46635 v -5.483767 q 0.6468,0 1.46635,-0.08838 v 3.43087 l 1.56278,-1.908271 z"
           style="font-style:normal;font-variant:normal;font-weight:normal;font-stretch:normal;font-family:'Britannic Bold';-inkscape-font-specification:'Britannic Bold, ';stroke-width:0.54851067px"
           id="path4520" />
        <path
           d="m 126.41681,53.686089 0.59056,0.172749 q -0.0924,1.402077 -1.65518,1.402077 -2.02477,0 -2.02477,-2.020758 0,-0.980249 0.53833,-1.606965 0.53833,-0.626716 1.37797,-0.626716 1.75561,0 1.75561,2.26582 h -2.13726 q 0,1.590895 0.8075,1.590895 0.75527,0 0.75527,-0.8999 0,-0.120523 -0.008,-0.277202 z m -1.55876,-0.867761 h 0.8758 q 0,-1.414129 -0.42585,-1.414129 -0.38567,0 -0.43388,1.048545 z"
           style="font-style:normal;font-variant:normal;font-weight:normal;font-stretch:normal;font-family:'Britannic Bold';-inkscape-font-specification:'Britannic Bold, ';stroke-width:0.54851067px"
           id="path4522" />
      </g>
      <path
         style="fill:#000000;stroke-width:0.0506061"
         d="m 83.057774,60.553054 c 0.250504,-0.144608 1.229721,-0.714072 2.17607,-1.265501 0.946321,-0.551438 1.925552,-1.120605 2.176057,-1.264844 0.250504,-0.144319 0.728726,-0.422455 1.062723,-0.618258 l 0.607275,-0.355992 V 52.582738 48.117017 L 88.295502,47.6609 c -0.431407,-0.250872 -1.000723,-0.582157 -1.265145,-0.736177 -0.425226,-0.247695 -0.691777,-0.402059 -1.239847,-0.71799 -0.379598,-0.218821 -2.305982,-1.341827 -2.555614,-1.489846 -0.153081,-0.09074 -0.60243,-0.353373 -0.998539,-0.583588 l -0.720213,-0.418567 -0.671459,0.391236 c -1.111,0.647323 -1.286567,0.749768 -2.392054,1.39589 -0.584502,0.341595 -1.461262,0.85217 -1.94834,1.134619 -0.487091,0.282432 -1.263329,0.733637 -1.724987,1.002631 l -0.839359,0.489112 -0.03357,2.741155 c -0.01856,1.507666 -0.03371,3.498689 -0.03371,4.424499 v 1.683316 l 0.290975,0.172936 c 0.427668,0.25416 1.606087,0.944766 2.871886,1.683041 0.612351,0.357156 1.306911,0.762594 1.543499,0.900995 0.236586,0.138345 0.635109,0.369678 0.885601,0.513944 2.252018,1.334692 1.655344,1.423698 3.593081,0.304948 z m -0.772131,-4.466785 0.01364,-3.074319 0.648277,-0.379558 c 0.887089,-0.519351 2.028447,-1.18827 2.547332,-1.492878 1.263151,-0.741565 1.913353,-1.11276 1.978862,-1.129707 0.05007,-0.01364 0.06331,0.627104 0.06331,3.07592 0,2.898669 -0.0055,3.094349 -0.08855,3.12535 -0.04872,0.01817 -0.234582,0.121985 -0.413069,0.230627 -0.178474,0.108612 -0.554224,0.32878 -0.834993,0.489178 -0.280769,0.160419 -1.011488,0.583408 -1.623825,0.940002 -1.739669,1.013085 -2.223664,1.288547 -2.265021,1.289145 -0.02115,3e-4 -0.03247,-1.382899 -0.02538,-3.07376 z m -2.289541,2.675142 C 79.731679,58.605451 79.475703,58.45499 79.427223,58.427033 79.127775,58.254249 77.720915,57.43503 77.035647,57.034376 76.590323,56.773994 76.04947,56.45967 75.83376,56.335859 l -0.392206,-0.225098 v -3.063378 c 0,-1.684872 0.0055,-3.069597 0.0146,-3.077187 0.0068,-0.0068 0.366254,0.192871 0.797019,0.445475 0.430808,0.252609 0.851585,0.498581 0.935078,0.546626 0.08337,0.04803 0.823626,0.480883 1.644702,0.96189 0.821074,0.480991 1.578292,0.921037 1.682634,0.977864 l 0.189785,0.103425 v 3.079372 3.079354 l -0.113934,-0.05962 c -0.06262,-0.03275 -0.330191,-0.18719 -0.594613,-0.34315 z m 1.21455,-7.250388 c -0.396614,-0.225168 -0.771887,-0.443104 -0.860305,-0.499631 -0.111341,-0.07122 -2.762264,-1.618315 -3.415917,-1.993616 -0.05567,-0.03205 -0.232139,-0.133446 -0.392192,-0.22552 -0.16004,-0.09211 -0.27961,-0.185842 -0.265678,-0.208355 0.02156,-0.03481 0.238539,-0.167436 0.708492,-0.432947 0.05567,-0.03153 0.522501,-0.303516 1.037413,-0.604602 0.514928,-0.30106 1.277808,-0.745318 1.695297,-0.987229 0.417503,-0.241909 0.979928,-0.568467 1.249835,-0.725712 0.269894,-0.157228 0.520398,-0.284494 0.556652,-0.2828 0.0363,0.0015 0.287346,0.132627 0.557909,0.290973 0.599934,0.351095 3.761404,2.190454 3.974139,2.312164 0.529267,0.302821 0.670423,0.393243 0.670423,0.429539 0,0.02347 -0.09674,0.09824 -0.215083,0.166398 -0.597614,0.344107 -2.194914,1.278448 -3.504472,2.049951 -0.807172,0.475537 -1.478959,0.865694 -1.492876,0.867004 -0.0146,0.0015 -0.150557,-0.06877 -0.303637,-0.155617 z"
         id="path4543"
         inkscape:connector-curvature="0"
         sodipodi:nodetypes="cccccccsccccccsscccscccccccccccscccscccccccscscccccccccccccccccscccsccsc" />
    </g>
  </g>
</svg>
