<?xml version="1.0" encoding="UTF-8" standalone="no"?>
<svg
   xmlns:dc="http://purl.org/dc/elements/1.1/"
   xmlns:cc="http://creativecommons.org/ns#"
   xmlns:rdf="http://www.w3.org/1999/02/22-rdf-syntax-ns#"
   xmlns:svg="http://www.w3.org/2000/svg"
   xmlns="http://www.w3.org/2000/svg"
   xmlns:sodipodi="http://sodipodi.sourceforge.net/DTD/sodipodi-0.dtd"
   xmlns:inkscape="http://www.inkscape.org/namespaces/inkscape"
   id="svg8"
   version="1.1"
   viewBox="0 0 74.674804 21.546217"
   height="21.546217mm"
   width="74.674805mm"
   sodipodi:docname="tocomake-logo-plain.svg"
   inkscape:version="0.92.1 r15371">
  <sodipodi:namedview
     pagecolor="#ffffff"
     bordercolor="#666666"
     borderopacity="1"
     objecttolerance="10"
     gridtolerance="10"
     guidetolerance="10"
     inkscape:pageopacity="0"
     inkscape:pageshadow="2"
     inkscape:window-width="1846"
     inkscape:window-height="1058"
     id="namedview1359"
     showgrid="false"
     inkscape:zoom="1.6812201"
     inkscape:cx="-57.475162"
     inkscape:cy="40.80022"
     inkscape:window-x="66"
     inkscape:window-y="-8"
     inkscape:window-maximized="1"
     inkscape:current-layer="text22" />
  <defs
     id="defs2" />
  <metadata
     id="metadata5">
    <rdf:RDF>
      <cc:Work
         rdf:about="">
        <dc:format>image/svg+xml</dc:format>
        <dc:type
           rdf:resource="http://purl.org/dc/dcmitype/StillImage" />
        <dc:title />
      </cc:Work>
    </rdf:RDF>
  </metadata>
  <g
     transform="translate(-73.872665,-41.598064)"
     id="layer1"
     inkscape:export-xdpi="299.87396"
     inkscape:export-ydpi="299.87396">
    <g
       aria-label="fatale"
       style="font-style:normal;font-weight:normal;font-size:10.58333302px;line-height:1.25;font-family:sans-serif;letter-spacing:0px;word-spacing:0px;fill:#000000;fill-opacity:1;stroke:none;stroke-width:0.26458332"
       id="text22">
      <g
         aria-label="TocoMake"
         style="font-style:normal;font-weight:normal;font-size:8.22765923px;line-height:125%;font-family:sans-serif;letter-spacing:0px;word-spacing:0px;fill:#000000;fill-opacity:1;stroke:none;stroke-width:0.54851067px;stroke-linecap:butt;stroke-linejoin:miter;stroke-opacity:1"
         id="text4494"
         transform="matrix(1.4971619,0,0,1.4971619,-41.603123,-25.715753)">
        <path
           d="m 95.518894,49.684747 v 0.550386 h -1.345833 v 4.933381 h -1.687312 v -4.933381 h -1.353868 v -0.550386 z"
           style="font-style:normal;font-variant:normal;font-weight:normal;font-stretch:normal;font-family:'Britannic Bold';-inkscape-font-specification:'Britannic Bold, ';stroke-width:0.54851067px"
           id="path4508"
           inkscape:connector-curvature="0" />
        <path
           d="m 97.684279,51.014511 q 2.008706,0 2.008706,2.121193 0,2.121193 -2.008706,2.121193 -2.012723,0 -2.012723,-2.121193 0,-2.121193 2.012723,-2.121193 z m -0.004,0.357549 q -0.486107,0 -0.486107,1.763644 0,1.763644 0.486107,1.763644 0.490124,0 0.490124,-1.763644 0,-1.763644 -0.490124,-1.763644 z"
           style="font-style:normal;font-variant:normal;font-weight:normal;font-stretch:normal;font-family:'Britannic Bold';-inkscape-font-specification:'Britannic Bold, ';stroke-width:0.54851067px"
           id="path4510"
           inkscape:connector-curvature="0" />
        <path
           d="m 103.18813,53.360679 0.61868,0.188818 0.004,0.164714 q 0,1.542686 -1.68731,1.542686 -2.00067,0 -2.00067,-2.028793 0,-1.016405 0.58252,-1.619017 0.58253,-0.606629 1.56278,-0.606629 1.41011,0 1.41011,1.277537 l -0.68698,0.333445 0.008,-0.385671 q 0,-0.867761 -0.58252,-0.867761 -0.77134,0 -0.77134,1.703383 0,1.052561 0.16471,1.446268 0.16471,0.389689 0.61065,0.389689 0.81553,0 0.81553,-1.05658 0,-0.148644 -0.0482,-0.482089 z"
           style="font-style:normal;font-variant:normal;font-weight:normal;font-stretch:normal;font-family:'Britannic Bold';-inkscape-font-specification:'Britannic Bold, ';stroke-width:0.54851067px"
           id="path4512"
           inkscape:connector-curvature="0" />
        <path
           d="m 106.15298,51.014511 q 2.00871,0 2.00871,2.121193 0,2.121193 -2.00871,2.121193 -2.01272,0 -2.01272,-2.121193 0,-2.121193 2.01272,-2.121193 z m -0.004,0.357549 q -0.4861,0 -0.4861,1.763644 0,1.763644 0.4861,1.763644 0.49013,0 0.49013,-1.763644 0,-1.763644 -0.49013,-1.763644 z"
           style="font-style:normal;font-variant:normal;font-weight:normal;font-stretch:normal;font-family:'Britannic Bold';-inkscape-font-specification:'Britannic Bold, ';stroke-width:0.54851067px"
           id="path4514"
           inkscape:connector-curvature="0" />
        <path
           d="m 113.94274,49.684747 v 5.483767 h -1.53465 v -3.816541 l -1.06863,3.816541 h -0.88785 l -1.09675,-3.752262 v 3.752262 h -0.53432 v -5.483767 h 1.615 l 0.94008,3.310348 0.93605,-3.310348 z"
           style="font-style:normal;font-variant:normal;font-weight:normal;font-stretch:normal;font-family:'Britannic Bold';-inkscape-font-specification:'Britannic Bold, ';stroke-width:0.54851067px"
           id="path4516"
           inkscape:connector-curvature="0" />
        <path
           d="m 118.90826,55.023887 q -0.53833,0.208906 -1.04854,0.208906 -0.75527,0 -0.93204,-0.470037 -0.36558,0.490124 -1.05256,0.490124 -1.28156,0 -1.28156,-1.189154 0,-0.903918 1.17309,-1.269502 1.07666,-0.337463 1.07666,-0.811517 0,-0.622699 -0.61868,-0.622699 -0.7151,0 -0.7151,0.602612 0,0.188818 0.11249,0.498159 l -0.72715,-0.14061 q -0.0281,-0.188818 -0.0281,-0.353532 0,-0.964179 1.75962,-0.964179 1.67125,0 1.67125,0.899901 v 2.458655 q 0,0.377637 0.24506,0.377637 0.0763,0 0.22497,-0.08436 z m -2.077,-2.289924 q -0.13659,0.156679 -0.31737,0.261132 -0.45397,0.265149 -0.45397,0.891865 0,0.803482 0.31336,0.803482 0.45798,0 0.45798,-0.795447 z"
           style="font-style:normal;font-variant:normal;font-weight:normal;font-stretch:normal;font-family:'Britannic Bold';-inkscape-font-specification:'Britannic Bold, ';stroke-width:0.54851067px"
           id="path4518"
           inkscape:connector-curvature="0" />
        <path
           d="m 122.78105,51.118963 -0.83562,1.048545 1.20522,3.001006 h -1.5467 l -0.70305,-1.783731 -0.26917,0.329428 v 1.454303 h -1.46635 v -5.483767 q 0.6468,0 1.46635,-0.08838 v 3.43087 l 1.56278,-1.908271 z"
           style="font-style:normal;font-variant:normal;font-weight:normal;font-stretch:normal;font-family:'Britannic Bold';-inkscape-font-specification:'Britannic Bold, ';stroke-width:0.54851067px"
           id="path4520"
           inkscape:connector-curvature="0" />
        <path
           d="m 126.41681,53.686089 0.59056,0.172749 q -0.0924,1.402077 -1.65518,1.402077 -2.02477,0 -2.02477,-2.020758 0,-0.980249 0.53833,-1.606965 0.53833,-0.626716 1.37797,-0.626716 1.75561,0 1.75561,2.26582 h -2.13726 q 0,1.590895 0.8075,1.590895 0.75527,0 0.75527,-0.8999 0,-0.120523 -0.008,-0.277202 z m -1.55876,-0.867761 h 0.8758 q 0,-1.414129 -0.42585,-1.414129 -0.38567,0 -0.43388,1.048545 z"
           style="font-style:normal;font-variant:normal;font-weight:normal;font-stretch:normal;font-family:'Britannic Bold';-inkscape-font-specification:'Britannic Bold, ';stroke-width:0.54851067px"
           id="path4522"
           inkscape:connector-curvature="0" />
      </g>
      <path
         style="fill:#488ff9;fill-opacity:1;stroke-width:0.06191126"
         d="m 85.109682,62.197985 c 0.306466,-0.176913 1.504435,-0.873593 2.662194,-1.548208 1.157724,-0.674627 2.355711,-1.370943 2.662177,-1.547404 0.306466,-0.176559 0.89152,-0.516829 1.30013,-0.756374 L 92.477121,57.91048 V 52.447139 46.983798 L 91.517493,46.425787 C 90.989712,46.118871 90.293214,45.713579 89.969721,45.525151 89.449502,45.222122 89.123404,45.033274 88.452898,44.646766 87.9885,44.379061 85.631771,43.005181 85.326373,42.824096 85.139094,42.713085 84.589363,42.391781 84.104765,42.110137 L 83.22366,41.598064 82.4022,42.0767 c -1.359192,0.791932 -1.57398,0.917263 -2.926427,1.707725 -0.715077,0.417906 -1.787701,1.042541 -2.38359,1.388088 -0.595904,0.345525 -1.54555,0.897527 -2.11034,1.226613 l -1.026868,0.598378 -0.04107,3.353515 c -0.02271,1.844471 -0.04124,4.280279 -0.04124,5.412911 v 2.05936 l 0.355977,0.211569 c 0.523207,0.310938 1.964879,1.155822 3.513452,2.059024 0.749147,0.436943 1.598868,0.932954 1.888309,1.102273 0.289438,0.169251 0.776989,0.452262 1.08344,0.628757 2.755107,1.632855 2.025139,1.741745 4.395757,0.373072 z m -0.944621,-5.464643 0.01669,-3.761107 0.793099,-0.464349 c 1.08526,-0.635372 2.481592,-1.453724 3.116394,-1.82638 1.545332,-0.907227 2.340786,-1.361345 2.42093,-1.382078 0.06126,-0.01669 0.07745,0.767196 0.07745,3.763065 0,3.546218 -0.0067,3.785612 -0.108332,3.823538 -0.0596,0.02223 -0.286986,0.149236 -0.505346,0.282148 -0.218345,0.132876 -0.678035,0.402228 -1.021527,0.598458 -0.343491,0.196256 -1.237449,0.713739 -1.986579,1.149994 -2.128303,1.239403 -2.72042,1.576402 -2.771016,1.577134 -0.02588,3.67e-4 -0.03972,-1.691832 -0.03105,-3.760423 z m -2.801013,3.272755 c -0.323494,-0.1908 -0.636654,-0.374874 -0.695964,-0.409076 -0.366343,-0.211383 -2.087489,-1.213612 -2.925842,-1.70377 -0.544808,-0.31855 -1.206484,-0.703092 -1.470383,-0.854562 l -0.479823,-0.275384 v -3.747721 c 0,-2.061265 0.0067,-3.75533 0.01786,-3.764616 0.0083,-0.0083 0.448073,0.235957 0.975069,0.544992 0.527048,0.309041 1.041825,0.609961 1.14397,0.66874 0.101994,0.05876 1.00762,0.588309 2.01212,1.176771 1.004498,0.588442 1.930875,1.126792 2.058526,1.196314 l 0.232182,0.12653 v 3.767288 3.767267 l -0.139386,-0.07294 c -0.07661,-0.04007 -0.403954,-0.229007 -0.727447,-0.419808 z m 1.485874,-8.870089 c -0.485215,-0.275469 -0.944322,-0.542091 -1.052493,-0.611246 -0.136214,-0.08713 -3.37934,-1.979839 -4.179016,-2.43898 -0.06811,-0.03921 -0.283997,-0.163257 -0.479805,-0.2759 -0.195793,-0.112687 -0.342074,-0.227358 -0.32503,-0.2549 0.02638,-0.04259 0.291828,-0.204841 0.866766,-0.529666 0.06811,-0.03857 0.639225,-0.37132 1.269166,-0.739667 0.62996,-0.368315 1.563264,-0.911818 2.074018,-1.207771 0.510771,-0.29595 1.198839,-0.69546 1.529042,-0.887832 0.330187,-0.192352 0.636652,-0.348049 0.681005,-0.345977 0.04441,0.0018 0.351538,0.162256 0.682544,0.355975 0.733956,0.429528 4.601683,2.679791 4.861942,2.82869 0.647502,0.37047 0.820192,0.481092 0.820192,0.525496 0,0.02871 -0.118351,0.120187 -0.263132,0.203571 -0.731118,0.420979 -2.685247,1.564047 -4.287353,2.5079 -0.987491,0.581769 -1.809352,1.059086 -1.826378,1.060688 -0.01786,0.0018 -0.18419,-0.08413 -0.371468,-0.190381 z"
         id="path4543"
         inkscape:connector-curvature="0"
         sodipodi:nodetypes="cccccccsccccccsscccscccccccccccscccscccccccscscccccccccccccccccscccsccsc" />
    </g>
  </g>
</svg>
