<?xml version="1.0" encoding="UTF-8" standalone="no"?>
<!-- Created with Inkscape (http://www.inkscape.org/) -->

<svg
   xmlns:dc="http://purl.org/dc/elements/1.1/"
   xmlns:cc="http://creativecommons.org/ns#"
   xmlns:rdf="http://www.w3.org/1999/02/22-rdf-syntax-ns#"
   xmlns:svg="http://www.w3.org/2000/svg"
   xmlns="http://www.w3.org/2000/svg"
   xmlns:sodipodi="http://sodipodi.sourceforge.net/DTD/sodipodi-0.dtd"
   xmlns:inkscape="http://www.inkscape.org/namespaces/inkscape"
   width="5987"
   height="3267"
   viewBox="0 0 1584.0604 864.39377"
   version="1.1"
   id="svg8"
   inkscape:version="0.92.1 r15371"
   sodipodi:docname="fatale-front-plain.svg">
  <defs
     id="defs2" />
  <sodipodi:namedview
     id="base"
     pagecolor="#ffffff"
     bordercolor="#666666"
     borderopacity="1.0"
     inkscape:pageopacity="0.0"
     inkscape:pageshadow="2"
     inkscape:zoom="0.21112126"
     inkscape:cx="2677.649"
     inkscape:cy="1853.4669"
     inkscape:document-units="mm"
     inkscape:current-layer="layer1"
     showgrid="false"
     inkscape:window-width="1846"
     inkscape:window-height="1058"
     inkscape:window-x="66"
     inkscape:window-y="-8"
     inkscape:window-maximized="1"
     units="px" />
  <metadata
     id="metadata5">
    <rdf:RDF>
      <cc:Work
         rdf:about="">
        <dc:format>image/svg+xml</dc:format>
        <dc:type
           rdf:resource="http://purl.org/dc/dcmitype/StillImage" />
        <dc:title></dc:title>
      </cc:Work>
    </rdf:RDF>
  </metadata>
  <g
     inkscape:label="Layer 1"
     inkscape:groupmode="layer"
     id="layer1"
     transform="translate(0,567.39379)">
    <path
       style="fill:#ff8100;fill-opacity:1;stroke-width:2.30588174"
       d="m 1259.1297,143.91492 c -3.7267,-1.00886 -13.708,-8.7134 -22.1809,-17.12134 l -15.4058,-15.28714 -14.8977,1.59538 c -16.4855,1.76544 -22.5983,-1.27623 -22.5983,-11.24388 0,-7.809027 4.4351,-10.672907 16.5299,-10.672907 7.8707,0 10.67,-0.81922 9.8491,-2.88235 -1.9078,-4.79917 -24.5568,-13.287547 -35.414,-13.272732 -5.603,0.0068 -16.6948,-1.119285 -24.6482,-2.504389 l -14.461,-2.518238 -10.8478,8.282959 -10.8477,8.28296 h 6.8919 c 7.7103,0 14.5239,6.08893 14.5239,12.9792 0,8.143887 -4.6853,10.079617 -24.3982,10.079617 -14.7799,0 -22.2942,1.30737 -34.7037,6.03804 -22.688,8.64874 -30.3609,10.56196 -35.6397,8.88656 -3.4887,-1.10734 -4.036,-2.22131 -2.1867,-4.44977 5.616,-6.76739 -4.4063,-14.28799 -10.6804,-8.01392 -1.7438,1.7439 -2.8654,1.40801 -3.8476,-1.15294 -0.9004,-2.34464 -0.1046,-3.61383 2.2684,-3.61383 2.3784,0 3.2569,-1.40942 2.5144,-4.03531 -0.6275,-2.21939 -1.5269,-5.522527 -1.9983,-7.340237 -0.4795,-1.83567 1.932,-4.69668 5.4181,-6.4357 5.0992,-2.5436 9.9754,-2.6386 25.9999,-0.50635 10.8478,1.44357 21.3992,1.98174 23.4473,1.19589 3.8372,-1.47259 3.7388,-7.56178 -0.6275,-38.805745 l -1.533,-10.962518 11.2678,5.129031 c 16.0672,7.313924 47.2021,7.136484 66.3936,-0.378236 17.9018,-7.009848 31.5193,-20.699771 38.1777,-38.3814967 4.3619,-11.5839958 4.9763,-16.8957873 4.1118,-35.5264103 -1.1278,-24.305753 -3.5854,-32.60222 -20.7142,-69.920691 -6.3978,-13.938307 -12.121,-29.680197 -12.718,-34.982057 -0.6014,-5.30177 0.6797,-22.51993 2.8289,-38.26253 4.0613,-29.69058 3.3719,-51.75226 -1.9216,-61.5168 -2.7602,-5.09139 -2.958,-4.96441 -7.8123,5.02776 -5.772,11.88162 -17.344,19.52846 -38.6316,25.52858 -18.2826,5.15327 -39.1816,16.42107 -46.4265,25.03163 -4.2538,5.05496 -6.3281,6.14287 -7.6466,4.00993 -1.4407,-2.33165 -3.161,-2.22855 -8.4563,0.50635 -3.6561,1.88857 -15.9584,7.18695 -27.3394,11.77434 -11.3812,4.5873 -31.61505,14.99126 -44.96485,23.11979 -27.40688,16.68845 -46.42947,24.92591 -55.2047,23.9058 -5.21518,-0.60657 -6.04836,-1.89963 -6.66277,-10.33955 -1.26107,-17.34818 3.96888,-24.57347 48.67406,-67.24473 9.75976,-9.31624 17.74521,-17.64844 17.74521,-18.51612 0,-2.12927 -45.32166,-9.70039 -67.12427,-11.21316 -27.91291,-1.93677 -41.32375,2.857 -72.79069,26.01854 -15.95823,11.74618 -28.05311,-23.68593 -19.24739,-56.38716 8.01189,-29.7521 30.46988,-57.94534 56.7103,-71.19156 28.82971,-14.55325 44.43772,-17.80252 85.15831,-17.72817 40.77319,0.0696 59.29199,3.04968 99.15249,15.93058 12.6823,4.09829 29.1112,8.62381 36.5078,10.05675 29.8528,5.78267 53.9719,22.82026 65.4803,46.25423 l 6.3882,13.00866 v 58.80003 c 0,80.00283 -1.4554,72.2678 13.6462,71.01543 31.3126,-2.59668 48.1991,-37.53838 35.9421,-74.37154 -7.1421,-21.45983 -5.3903,-28.56337 11.0901,-44.98365 14.3163,-14.26452 50.4806,-41.90712 67.9527,-51.93964 13.2793,-7.62541 42.6406,-38.92149 62.9809,-67.13041 14.3477,-19.89998 33.1882,-53.79213 33.1882,-59.70422 0,-4.66504 6.3037,-8.59165 11.2651,-7.01709 2.5127,0.79744 6.8414,6.14662 9.6207,11.88702 4.2565,8.79262 4.8892,13.26105 4.015,28.35943 -0.9351,16.15605 -2.4027,20.74099 -14.8915,46.52692 -7.6196,15.73268 -20.8946,38.98128 -29.499,51.66364 -8.6045,12.68236 -13.7055,21.45904 -11.3358,19.50371 21.0636,-17.38113 40.0922,-34.30185 59.0311,-52.49227 14.251,-13.68888 23.9066,-21.27157 26.4592,-20.77996 12.84,2.47267 12.8165,35.77863 0,62.85815 -8.8258,18.58496 -29.404,42.09144 -53.9406,61.61564 -8.0972,6.44336 -14.2885,12.14917 -13.7587,12.67948 1.2263,1.22606 31.8348,-10.77714 55.3274,-21.69669 15.0457,-6.99321 18.3871,-7.83248 20.1415,-5.05958 9.9021,15.64987 -19.2178,57.84014 -52.0146,75.36264 l -13.8353,7.39184 19.0234,0.061 19.0242,0.061 v 6.19847 c 0,19.73238 -42.4461,46.46775 -74.6077,46.99283 -11.3766,0.185627 -9.7069,1.067507 20.207,10.669654 23.2781,7.472192 27.7786,11.622334 20.8736,19.251919 -13.1372,14.516819 -47.5559,19.280423 -73.697,10.200204 -2.536,-0.881184 2.6521,2.746496 11.5302,8.06116 21.6946,12.988355 24.6107,15.782955 21.8488,20.943104 -5.5071,10.290664 -33.494,11.566822 -54.0687,2.465514 l -10.6595,-4.715325 9.3565,10.872054 9.3566,10.872053 -4.89,4.0352808 c -2.6895,2.219489 -7.1848,4.0352888 -9.9885,4.0352888 -10.0999,0 -26.6299,-7.4487426 -37.4838,-16.8907356 -8.0772,-7.026672 -10.0834,-8.069875 -7.427,-3.862198 16.5457,26.2084335 17.9252,31.1624743 9.014,32.3628953 -8.9417,1.204434 -16.1849,-0.5464409 -23.89,-5.7757888 -4.6154,-3.13239639 -8.3926,-5.2465972 -8.3926,-4.6982415 0,2.68574251 10.3431,28.31455 13.2096,32.731207 5.0225,7.739741 22.8876,9.009108 56.6153,4.022563 36.1487,-5.344389 41.6985,-5.438948 42.6397,-0.726846 0.9708,4.866106 -9.6067,17.325884 -18.7742,22.114769 -3.9707,2.074208 -12.9263,5.612816 -19.9018,7.863769 l -12.6824,4.092716 9.8002,0.123758 c 11.2749,0.142929 12.2579,2.467428 3.8433,9.086229 -10.4154,8.19258 -30.9448,14.62863 -43.0448,13.49444 -8.8529,-0.82968 -10.4731,-0.44622 -8.4441,1.99848 1.9434,2.34166 1.0423,3.39419 -3.989,4.65685 -5.6927,1.42893 -4.6443,2.00613 8.4441,4.650217 18.3497,3.70734 31.7919,9.52064 34.7369,15.02285 1.7491,3.26906 1.4798,3.86281 -1.2742,2.80619 -4.4343,-1.70145 -7.6397,5.82259 -3.5558,8.34659 2.2058,1.36331 1.7422,2.47361 -1.8311,4.3858 -5.0957,2.72724 -11.1797,2.47886 -16.2162,-0.66234 -4.9049,-3.05946 -8.9174,2.3841 -5.6335,7.64309 2.2128,3.54349 1.9958,4.49806 -1.2105,5.31859 -2.1491,0.54993 -6.9573,0.17431 -10.684,-0.83404 z M 939.35158,-123.70501 c 4.58851,-2.78014 16.64417,-11.47558 26.79036,-19.32313 10.14522,-7.84763 28.30351,-20.15943 40.35216,-27.35953 22.5653,-13.48522 41.6802,-29.99718 47.4784,-41.01233 5.3904,-10.2403 -2.4637,-5.52367 -10.6752,6.41085 -8.0719,11.73268 -20.7595,22.29779 -41.4151,34.48721 -8.24365,4.86471 -24.32703,15.78391 -35.74026,24.2648 -11.41422,8.48079 -24.12527,17.14635 -28.24753,19.25662 l -7.49419,3.83694 v -6.52538 c 0,-10.43691 11.8369,-26.28183 32.59637,-43.63253 21.88769,-18.29449 38.49331,-35.7932 35.05436,-36.93958 -4.0125,-1.33734 -64.82522,59.80698 -68.69479,69.06926 -4.17279,9.98624 -4.70528,22.52157 -0.95776,22.52157 1.43626,0 6.36468,-2.27465 10.95318,-5.05477 z m 44.08336,-39.95919 c 0,-2.18141 -9.11992,2.21895 -10.14659,4.89599 -0.97346,2.53602 -0.009,2.42908 4.45152,-0.49241 3.13302,-2.05242 5.69507,-4.03407 5.69507,-4.40358 z m 18.44726,-11.76711 c 0,-1.63845 -13.43625,5.84647 -14.98055,8.34519 -0.793,1.27938 2.2563,0.14641 6.7716,-2.51728 4.5146,-2.66396 8.20895,-5.28653 8.20895,-5.82791 z m -16.13435,-1.44244 c 3.3954,-4.63733 3.9523,-6.24788 1.4607,-4.22492 -3.78051,3.07078 -9.49738,11.71907 -7.74667,11.71907 0.44457,0 3.26902,-3.37232 6.28597,-7.49415 z m 11.5222,-14.41172 c 2.97885,-3.17064 4.89715,-5.76471 4.26255,-5.76471 -0.6362,0 -3.58965,2.59407 -6.56855,5.76471 -2.9779,3.17058 -4.8961,5.76473 -4.2625,5.76473 0.6361,0 3.5905,-2.59415 6.5685,-5.76473 z m 139.02825,-42.69487 c 7.3879,-5.81143 11.7638,-18.60387 9.8517,-28.79876 -1.4842,-7.90899 -12.6135,-19.58867 -18.666,-19.58867 -20.3578,0 -29.0921,32.06406 -12.7198,46.69407 8.4458,7.54671 13.5799,7.9504 21.5341,1.69336 z m -20.2321,-4.5283 c -2.536,-2.8021 -4.131,-8.16199 -4.131,-13.8827 0,-11.28036 5.7076,-18.44708 14.6911,-18.44708 8.1069,0 13.6087,7.45789 13.6087,18.44708 0,16.34638 -14.4357,24.63815 -24.1688,13.8827 z m 21.8628,-13.8827 c 0,-1.26823 -1.5565,-2.30585 -3.459,-2.30585 -1.9017,0 -3.4583,1.03762 -3.4583,2.30585 0,1.26823 1.5566,2.30585 3.4583,2.30585 1.9025,0 3.459,-1.03762 3.459,-2.30585 z m -5.1872,-8.64586 c 1.2602,-3.78655 -5.9647,-6.48956 -9.0629,-3.39062 -1.3264,1.32609 -1.6786,3.59665 -0.7844,5.04562 2.0368,3.29651 8.5618,2.19971 9.8455,-1.655 z m -26.2989,21.22879 c -0.7494,-1.95707 -1.8606,-3.06373 -2.4646,-2.45934 -0.6013,0.60484 -0.4183,2.20563 0.4183,3.55831 2.2738,3.67892 3.6029,2.9642 2.0437,-1.09897 z m -2.4332,-28.7273 c 0.6623,-2.5382 0.2701,-4.03346 -0.8837,-3.32273 -1.1505,0.71028 -2.0909,2.78745 -2.0909,4.61493 0,4.77258 1.5671,4.09202 2.9746,-1.2922 z m 43.4293,-5.22351 c -2.2773,-2.26036 -2.5422,-1.9955 -1.2907,1.29088 0.8628,2.27405 2.1552,3.55387 2.8646,2.84393 0.7147,-0.71028 0,-2.57061 -1.5739,-4.13481 z m -0.2876,-5.01365 c 0,-0.55951 -1.038,-1.65823 -2.306,-2.44197 -1.2681,-0.7835 -2.3061,-0.32596 -2.3061,1.01679 0,1.34309 1.038,2.44198 2.3061,2.44198 1.268,0 2.306,-0.45754 2.306,-1.0168 z m -240.84942,-40.34675 c 1.20532,-1.18997 11.53016,-4.92005 22.94437,-8.28916 16.19271,-4.77973 27.84493,-6.43656 53.03478,-7.54077 25.85937,-1.13375 29.98847,-1.73815 20.75227,-3.03827 -30.98001,-4.36123 -72.65845,-0.23793 -98.83172,9.77829 -13.9225,5.32784 -16.11429,8.02762 -7.81487,9.62615 2.85414,0.54993 5.75891,1.14063 6.45702,1.31328 0.69719,0.17257 2.25375,-0.65973 3.45815,-1.84952 z M 1018.2335,65.5158 c -2.6529,-2.847229 -4.8239,-6.111056 -4.8239,-7.252917 0,-1.141858 -3.1923,0.610058 -7.0941,3.893669 -13.65655,11.491087 -32.10508,6.051186 -32.10508,-9.466828 v -5.186736 l -10.71963,5.699792 c -12.90715,6.862746 -30.10731,7.845989 -32.40723,1.852673 -0.81052,-2.115959 0.14808,-6.678509 2.13512,-10.139118 l 3.61077,-6.291901 -10.28126,4.547825 c -11.64953,5.153443 -36.32651,6.30855 -44.24422,2.071069 -7.06799,-3.7829 -6.10318,-11.059433 2.55353,-19.25899 5.1559,-4.883356 6.05533,-6.551092 2.88302,-5.34517 -23.40978,8.897549 -63.27285,3.026076 -70.44544,-10.375734 -2.04976,-3.8305657 -1.72034,-5.7074635 1.66116,-9.45174849 5.45653,-6.04273171 25.44997,-15.99751251 45.14876,-22.48036051 8.56,-2.817256 15.56444,-5.458382 15.56444,-5.869215 0,-0.41048 -8.07117,-0.193475 -17.93664,0.482819 -36.76748,2.520072 -70.02276,-8.155015 -87.59506,-28.118279 -13.79784,-15.675233 -16.6451,-36.044517 -4.54586,-32.520208 34.33946,10.002625 40.6588,10.975505 72.03071,11.089759 46.71488,0.169952 70.88893,-4.537718 94.54098,-18.411844 46.7144,-27.403367 52.64668,-28.590107 76.43123,-15.289407 13.2731,7.42287 16.3121,8.22962 27.5024,7.30164 11.9066,-0.98743 12.4975,-0.7861 11.0438,3.761017 -16.6268,51.996601 -11.1258,98.0755714 15.1042,126.531826 10.2342,11.103003 11.7193,18.08593 5.6805,26.707824 -3.7083,5.294972 -11.6512,5.984775 -21.6214,1.877939 -2.2895,-0.943062 -5.0286,1.082331 -8.1006,5.989752 -6.0188,9.613493 -16.8753,11.267195 -23.9702,3.6512 z"
       id="path4524"
       inkscape:connector-curvature="0" />
    <path
       style="opacity:1;fill:#000000;fill-opacity:1;fill-rule:nonzero;stroke:#000000;stroke-width:1.71263623;stroke-linecap:round;stroke-linejoin:round;stroke-miterlimit:4;stroke-dasharray:none;stroke-dashoffset:0;stroke-opacity:0;paint-order:stroke markers fill"
       d="m 1121.5698,-234.92872 c -6.1904,-2.4554 -9.428,-9.4039 -8.9173,-19.13794 0.3922,-7.5399 2.5945,-11.9624 7.2466,-14.57703 6.2052,-3.48745 13.2079,-1.58284 17.0905,4.64823 1.8118,2.90815 2.2641,4.58694 2.5456,9.45009 0.3748,6.49095 -0.4532,10.13205 -3.3187,14.59342 -3.0939,4.81538 -9.5709,7.03677 -14.6467,5.02323 z m 15.7082,-15.92135 c 2.4132,-2.41321 -0.9134,-5.08659 -4.5903,-3.68868 -2.1935,0.83404 -2.6232,2.21417 -1.1486,3.68868 1.1678,1.16835 4.5711,1.16835 5.7389,0 z m -6.0588,-7.82157 c 3.4704,-2.43066 1.1783,-7.13178 -3.4764,-7.13178 -1.4608,0 -3.277,0.56212 -4.037,1.24983 -1.5677,1.41935 -1.8293,4.797 -0.4706,6.15133 1.2838,1.28321 5.9987,1.12425 7.9883,-0.2693 z"
       id="path4526"
       inkscape:connector-curvature="0" />
    <path
       style="fill:#ffffff;stroke-width:0.32322925"
       d="m 871.73342,-104.91577 c -1.60012,-0.92364 -7.85416,-4.5609 -13.89891,-8.08295 -6.04399,-3.52214 -12.29886,-7.15749 -13.89891,-8.07877 -1.5993,-0.9218 -4.6539,-2.69829 -6.78735,-3.94891 l -3.87915,-2.27379 v -28.52326 -28.52328 l 5.01035,-2.91329 c 2.75575,-1.60237 6.3917,-3.71832 8.08065,-4.70208 2.71563,-1.58206 4.4186,-2.568 7.91947,-4.58591 2.42458,-1.39765 14.72857,-8.57047 16.32257,-9.5159 0.97783,-0.57955 3.84775,-2.25704 6.37777,-3.72746 l 4.60068,-2.67346 4.28873,2.4989 c 7.09586,4.13455 8.21757,4.78888 15.27851,8.91577 3.73274,2.18183 9.33307,5.44295 12.44443,7.24699 3.11035,1.80394 8.0684,4.68586 11.01765,6.40396 l 5.36066,3.12404 0.21793,17.5082 c 0.12197,9.62971 0.21785,22.34667 0.21785,28.25998 v 10.75161 l -1.8581,1.10456 c -2.73133,1.62337 -10.2586,6.03436 -18.34362,10.74987 -3.91046,2.28119 -8.34736,4.87081 -9.85859,5.75479 -1.51114,0.88362 -4.05602,2.36119 -5.65606,3.28264 -14.38439,8.524887 -10.57324,9.093377 -22.94959,1.94775 z m 4.93186,-28.53007 -0.0871,-19.63617 -4.14056,-2.4243 c -5.66573,-3.31715 -12.95593,-7.58967 -16.27028,-9.53524 -8.06764,-4.7365 -12.22037,-7.10737 -12.6396,-7.21561 -0.32245,-0.0871 -0.40094,4.00539 -0.40094,19.64637 0,18.51427 0,19.76412 0.56648,19.96212 0.3138,0.11591 1.49906,0.77913 2.63899,1.47303 1.13992,0.69373 3.54008,2.1 5.33278,3.12448 1.79355,1.02463 6.46055,3.72632 10.37193,6.00394 11.11176,6.47074 14.20305,8.23014 14.46715,8.23398 0.13071,0.002 0.20912,-8.83279 0.16555,-19.6326 z m 14.62405,17.08655 c 1.68895,-0.99614 3.32391,-1.95715 3.63335,-2.13573 1.91292,-1.1036 10.89827,-6.33608 15.27498,-8.89511 2.84466,-1.66311 6.29929,-3.67073 7.6772,-4.46154 l 2.50476,-1.43774 v -19.56627 c 0,-10.76155 0,-19.60603 -0.0959,-19.65448 -0.0872,-0.0436 -2.3392,1.23188 -5.09051,2.84532 -2.75139,1.61344 -5.43915,3.18451 -5.97255,3.49137 -0.53156,0.30678 -5.26043,3.07148 -10.50524,6.14375 -5.24389,3.07216 -10.08079,5.8828 -10.74659,6.24578 l -1.21229,0.66061 v 19.66842 19.66833 l 0.72339,-0.38085 c 0.40084,-0.20915 2.10902,-1.19563 3.79805,-2.19177 z m -7.75738,-46.30938 c 2.53263,-1.43818 4.93019,-2.83016 5.4949,-3.19122 0.71465,-0.45493 17.6429,-10.33643 21.81747,-12.73352 0.35736,-0.20481 1.48243,-0.85234 2.50474,-1.44045 1.02232,-0.58828 1.78658,-1.187 1.69769,-1.3308 -0.13945,-0.22223 -1.52425,-1.06943 -4.52572,-2.76532 -0.35736,-0.20131 -3.3371,-1.93859 -6.62617,-3.86168 -3.28908,-1.92291 -8.16175,-4.76047 -10.82768,-6.30558 -2.66686,-1.5451 -6.25924,-3.6309 -7.98303,-4.63523 -1.72387,-1.00424 -3.324,-1.81712 -3.55578,-1.8063 -0.23538,0.009 -1.83543,0.84711 -3.56367,1.8585 -3.83113,2.24249 -24.02419,13.99077 -25.3828,14.76816 -3.38067,1.93416 -4.28269,2.5117 -4.28269,2.74353 0,0.1499 0.61878,0.6275 1.3744,1.06281 3.81635,2.19787 14.0192,8.16565 22.3831,13.09336 5.1559,3.03732 9.44631,5.52934 9.53521,5.5377 0.0959,0.009 0.96222,-0.43925 1.94003,-0.99396 z"
       id="path4543"
       inkscape:connector-curvature="0"
       sodipodi:nodetypes="cccccccsccccccsscccscccccccccccscccscccccccscscccccccccccccccccscccsccsc" />
  </g>
</svg>
