<?xml version="1.0" encoding="UTF-8" standalone="no"?>
<!-- Created with Inkscape (http://www.inkscape.org/) -->

<svg
   xmlns:dc="http://purl.org/dc/elements/1.1/"
   xmlns:cc="http://creativecommons.org/ns#"
   xmlns:rdf="http://www.w3.org/1999/02/22-rdf-syntax-ns#"
   xmlns:svg="http://www.w3.org/2000/svg"
   xmlns="http://www.w3.org/2000/svg"
   xmlns:sodipodi="http://sodipodi.sourceforge.net/DTD/sodipodi-0.dtd"
   xmlns:inkscape="http://www.inkscape.org/namespaces/inkscape"
   width="5987"
   height="3267"
   viewBox="0 0 1584.0604 864.39377"
   version="1.1"
   id="svg8"
   inkscape:version="0.92.1 r15371"
   sodipodi:docname="tocomake-front-plain.svg">
  <defs
     id="defs2" />
  <sodipodi:namedview
     id="base"
     pagecolor="#ffffff"
     bordercolor="#666666"
     borderopacity="1.0"
     inkscape:pageopacity="0.0"
     inkscape:pageshadow="2"
     inkscape:zoom="0.12057451"
     inkscape:cx="2386.4323"
     inkscape:cy="2113.5124"
     inkscape:document-units="mm"
     inkscape:current-layer="layer1"
     showgrid="false"
     inkscape:window-width="1846"
     inkscape:window-height="1058"
     inkscape:window-x="66"
     inkscape:window-y="-8"
     inkscape:window-maximized="1"
     units="px" />
  <metadata
     id="metadata5">
    <rdf:RDF>
      <cc:Work
         rdf:about="">
        <dc:format>image/svg+xml</dc:format>
        <dc:type
           rdf:resource="http://purl.org/dc/dcmitype/StillImage" />
        <dc:title />
      </cc:Work>
    </rdf:RDF>
  </metadata>
  <g
     inkscape:label="Layer 1"
     inkscape:groupmode="layer"
     id="layer1"
     transform="translate(0,567.39379)">
    <path
       style="fill:#ff9955;fill-opacity:1;stroke-width:2.03968763"
       d="m 1304.8701,99.427763 c -3.2965,-0.892392 -12.1255,-7.707509 -19.6203,-15.144827 l -13.6273,-13.522373 -13.1779,1.411208 c -14.5824,1.561634 -19.9895,-1.128901 -19.9895,-9.945872 0,-6.907542 3.923,-9.440812 14.6216,-9.440812 6.9621,0 9.4383,-0.724648 8.7121,-2.549608 -1.6875,-4.245148 -21.7219,-11.753615 -31.3257,-11.74051 -4.9562,0.006 -14.7675,-0.990073 -21.8028,-2.215279 l -12.7916,-2.227529 -9.5955,7.326763 -9.5954,7.326764 h 6.0962 c 6.8203,0 12.8473,5.386016 12.8473,11.480864 0,7.203746 -4.1444,8.916012 -21.5817,8.916012 -13.0736,0 -19.7205,1.156446 -30.6974,5.341001 -20.0689,7.650317 -26.856,9.342673 -31.5255,7.860684 -3.0859,-0.979508 -3.57,-1.964879 -1.9341,-3.936083 4.9676,-5.986154 -3.8977,-12.638566 -9.4476,-7.088782 -1.5424,1.542581 -2.5345,1.245467 -3.4034,-1.019843 -0.7964,-2.073973 -0.092,-3.196645 2.0066,-3.196645 2.1038,0 2.8809,-1.246715 2.2242,-3.569469 -0.5551,-1.96318 -1.3507,-4.884998 -1.7677,-6.49287 -0.4241,-1.623758 1.709,-4.154489 4.7926,-5.692754 4.5106,-2.249964 8.8238,-2.333996 22.9984,-0.447896 9.5956,1.276922 18.929,1.752965 20.7406,1.057835 3.3943,-1.302593 3.3072,-6.688839 -0.5551,-34.325959 l -1.356,-9.6969886 9.967,4.5369276 c 14.2124,6.469595 41.753,6.312639 58.7291,-0.334571 15.8352,-6.2006219 27.8807,-18.3101621 33.7704,-33.950686 3.8583,-10.246724 4.4018,-14.945316 3.6371,-31.425194 -0.9976,-21.499865 -3.1715,-28.838576 -18.3229,-61.848951 -5.6593,-12.32925 -10.7218,-26.25387 -11.2499,-30.94368 -0.5319,-4.68972 0.6013,-19.9202 2.5024,-33.84545 3.5924,-26.26306 2.9826,-45.77791 -1.6998,-54.41522 -2.4416,-4.50364 -2.6165,-4.39131 -6.9104,4.44735 -5.1057,10.50999 -15.3418,17.27407 -34.1719,22.58153 -16.172,4.55837 -34.6584,14.5254 -41.067,22.14194 -3.7627,4.47142 -5.5975,5.43373 -6.7639,3.54702 -1.2744,-2.06248 -2.7961,-1.97128 -7.48,0.4479 -3.2341,1.67055 -14.1162,6.35727 -24.1833,10.41509 -10.0674,4.05774 -27.9654,13.26065 -39.7741,20.45082 -24.243,14.7619 -41.0696,22.04842 -48.8318,21.14607 -4.6132,-0.53654 -5.3501,-1.68033 -5.8936,-9.14593 -1.1155,-15.34548 3.5107,-21.73668 43.0551,-59.48191 8.633,-8.24076 15.6966,-15.61109 15.6966,-16.3786 0,-1.88346 -40.0896,-8.58056 -59.3753,-9.9187 -24.69064,-1.71318 -36.55332,2.52719 -64.38767,23.01493 -14.11599,10.39019 -24.81462,-20.95159 -17.02545,-49.87776 7.08699,-26.31746 26.9524,-51.25605 50.16359,-62.9731 25.50153,-12.87321 39.30773,-15.74738 75.32753,-15.68161 36.0662,0.0616 52.4473,2.69762 87.7062,14.09153 11.2183,3.62518 25.7506,7.62827 32.2933,8.89579 26.4065,5.11511 47.7413,20.18586 57.9211,40.91458 l 5.6508,11.50693 v 52.01207 c 0,70.7672 -1.2874,63.92511 12.0709,62.81731 27.6978,-2.29692 42.6349,-33.2049 31.7928,-65.78599 -6.3176,-18.98248 -4.768,-25.26598 9.8099,-39.79067 12.6636,-12.61781 44.6531,-37.06931 60.1082,-45.94366 11.7463,-6.74512 37.7181,-34.42834 55.7103,-59.38079 12.6913,-17.6027 29.3569,-47.5823 29.3569,-52.81188 0,-4.12651 5.5759,-7.59982 9.9646,-6.20703 2.2227,0.70538 6.0516,5.43704 8.51,10.51476 3.7652,7.77759 4.3248,11.73018 3.5515,25.08558 -0.8271,14.29098 -2.1252,18.34662 -13.1723,41.15579 -6.74,13.91648 -18.4825,34.48124 -26.0936,45.69953 -7.6112,11.21829 -12.1234,18.98177 -10.0272,17.25217 18.6319,-15.37463 35.4639,-30.342 52.2164,-46.43249 12.6059,-12.10862 21.1469,-18.81596 23.4048,-18.38109 11.3577,2.18722 11.3369,31.64829 0,55.60172 -7.807,16.43948 -26.0096,37.23235 -47.7136,54.50264 -7.1625,5.69954 -12.6391,10.74666 -12.1705,11.21574 1.0848,1.08453 28.1598,-9.533 48.9404,-19.19199 13.3088,-6.1859 16.2644,-6.92829 17.8163,-4.47549 8.759,13.84322 -16.9992,51.16299 -46.01,66.66267 l -12.238,6.53852 16.8273,0.054 16.828,0.054 v 5.48291 c 0,17.45445 -37.5461,41.10346 -65.9949,41.56792 -10.0633,0.1642 -8.5863,0.94427 17.8742,9.43793 20.591,6.60959 24.5719,10.280634 18.4639,17.029451 -11.6205,12.840975 -42.0659,17.054662 -65.1892,9.022676 -2.2433,-0.779459 2.3459,2.429437 10.1991,7.130569 19.1902,11.488962 21.7696,13.96095 19.3265,18.525404 -4.8713,9.102696 -29.6273,10.231533 -47.8269,2.180892 l -9.429,-4.170982 8.2765,9.61697 8.2764,9.616969 -4.3255,3.569442 c -2.379,1.963268 -6.3554,3.569449 -8.8355,3.569449 -8.9339,0 -23.5557,-6.588849 -33.1565,-14.940845 -7.1448,-6.215505 -8.9194,-7.138278 -6.5696,-3.416341 14.6356,23.182897 15.8559,27.565036 7.9734,28.626879 -7.9095,1.065393 -14.3165,-0.483359 -21.1322,-5.109024 -4.0826,-2.770789 -7.4237,-4.640923 -7.4237,-4.15587 0,2.375696 9.1491,25.0458809 11.6846,28.95267295 4.4428,6.84625495 20.2455,7.96908445 50.0796,3.55819265 31.9756,-4.7274254 36.8848,-4.8110681 37.7173,-0.6429373 0.8588,4.3043561 -8.4976,15.3257597 -16.6068,19.5618097 -3.5124,1.834759 -11.4341,4.964865 -17.6044,6.955965 l -11.2183,3.620248 8.6689,0.109471 c 9.9733,0.126429 10.8428,2.182584 3.3996,8.037303 -9.2131,7.246817 -27.3725,12.93988 -38.0757,11.936623 -7.8309,-0.733901 -9.264,-0.394708 -7.4693,1.767773 1.7191,2.071335 0.922,3.00236 -3.5285,4.119257 -5.0355,1.263973 -4.1081,1.774539 7.4693,4.11339 16.2314,3.279359 28.1219,8.421564 30.7269,13.288592 1.5471,2.891675 1.3089,3.416882 -1.1271,2.48224 -3.9224,-1.505033 -6.7578,5.150422 -3.1453,7.383048 1.9511,1.205927 1.5411,2.188049 -1.6197,3.879497 -4.5075,2.412408 -9.8892,2.192698 -14.3443,-0.58588 -4.3386,-2.70627 -7.8879,2.108881 -4.9831,6.760761 1.9574,3.134423 1.7654,3.9788 -1.0707,4.704605 -1.9011,0.48645 -6.1542,0.15419 -9.4506,-0.737758 z M 1022.0076,-137.29776 c 4.0588,-2.4592 14.7228,-10.15082 23.6976,-17.09244 8.9741,-6.94169 25.0363,-17.8322 35.6939,-24.20111 19.9603,-11.92847 36.8686,-26.53427 41.9974,-36.27781 4.7682,-9.05815 -2.1793,-4.88601 -9.4428,5.67078 -7.14,10.37824 -18.363,19.7237 -36.6341,30.50595 -7.2919,4.30312 -21.5187,13.9618 -31.6144,21.46364 -10.0965,7.50176 -21.3401,15.16695 -24.9865,17.03361 l -6.6291,3.394 v -5.77208 c 0,-9.23206 10.4704,-23.24782 28.8334,-38.59554 19.361,-16.18254 34.0496,-31.66117 31.0077,-32.67522 -3.5493,-1.18296 -57.3418,52.90278 -60.7646,61.09581 -3.6911,8.83342 -4.1621,19.92165 -0.8473,19.92165 1.2706,0 5.63,-2.01205 9.6888,-4.47124 z m 38.9943,-35.34625 c 0,-1.92958 -8.0671,1.96279 -8.9751,4.3308 -0.8612,2.24325 -0.01,2.14866 3.9376,-0.43557 2.7712,-1.81549 5.0375,-3.56837 5.0375,-3.89523 z m 16.3177,-10.40869 c 0,-1.44931 -11.8851,5.17154 -13.2512,7.38181 -0.7013,1.13168 1.9959,0.1295 5.99,-2.22669 3.9933,-2.35642 7.2612,-4.67624 7.2612,-5.15512 z m -14.2717,-1.27593 c 3.0034,-4.10198 3.496,-5.52662 1.2921,-3.73719 -3.3442,2.71629 -8.401,10.36621 -6.8525,10.36621 0.3933,0 2.8917,-2.98301 5.5604,-6.62902 z m 10.192,-12.74801 c 2.6349,-2.80461 4.3318,-5.09923 3.7705,-5.09923 -0.5628,0 -3.1752,2.29462 -5.8102,5.09923 -2.6342,2.80457 -4.3309,5.09924 -3.7705,5.09924 0.5627,0 3.176,-2.29467 5.8102,-5.09924 z m 122.9786,-37.76611 c 6.5351,-5.14056 10.4058,-16.45622 8.7145,-25.4742 -1.3129,-6.99596 -11.1574,-17.32733 -16.5112,-17.32733 -18.0077,0 -25.7337,28.36255 -11.2515,41.30365 7.4709,6.67551 12.0123,7.03259 19.0482,1.49788 z m -26.4088,-5.15527 c -0.6629,-1.73115 -1.6459,-2.71005 -2.1801,-2.17543 -0.5318,0.53501 -0.37,1.95101 0.37,3.14753 2.0113,3.25422 3.187,2.62201 1.8078,-0.9721 z m -2.1523,-25.41098 c 0.5858,-2.2452 0.2389,-3.56784 -0.7817,-2.93916 -1.0177,0.62829 -1.8495,2.46566 -1.8495,4.08218 0,4.22162 1.3862,3.61963 2.6312,-1.14302 z m 38.4157,-4.62051 c -2.0144,-1.99942 -2.2487,-1.76514 -1.1417,1.14186 0.7632,2.01153 1.9065,3.1436 2.534,2.51562 0.6321,-0.62828 0,-2.27385 -1.3923,-3.65748 z m -0.2544,-4.43487 c 0,-0.49492 -0.9181,-1.4668 -2.0397,-2.16006 -1.1218,-0.69305 -2.0399,-0.28833 -2.0399,0.89941 0,1.18804 0.9181,2.16007 2.0399,2.16007 1.1216,0 2.0397,-0.40472 2.0397,-0.89942 z m -213.0454,-35.68906 c 1.06618,-1.0526 10.1991,-4.35208 20.2957,-7.33225 14.3234,-4.22795 24.6305,-5.69351 46.9123,-6.67025 22.8741,-1.00287 26.5265,-1.5375 18.3566,-2.68753 -27.4036,-3.85776 -64.2706,-0.21047 -87.42244,8.64947 -12.31527,4.71278 -14.25404,7.1009 -6.91271,8.51489 2.52466,0.48645 5.09409,1.00896 5.71161,1.16167 0.61671,0.15266 1.99357,-0.58356 3.05894,-1.636 z m 99.01,340.232584 c -2.3466,-2.518541 -4.2671,-5.405587 -4.2671,-6.41563 0,-1.010041 -2.8237,0.539631 -6.275,3.444179 -12.08,10.164539 -28.399,5.352629 -28.399,-8.373965 v -4.587972 l -9.4821,5.0418 c -11.4172,6.070501 -26.6316,6.940238 -28.666,1.638798 -0.7171,-1.87169 0.1309,-5.907533 1.8886,-8.968645 l 3.194,-5.5655548 -9.0944,4.0228178 c -10.3047,4.558522 -32.13297,5.580282 -39.13664,1.831982 -6.25206,-3.3461967 -5.39863,-9.7827176 2.25874,-17.0357062 4.5607,-4.3196143 5.35629,-5.7948258 2.5502,-4.7281163 -20.70732,7.8704036 -55.96855,2.6767412 -62.31313,-9.1779465 -1.81313,-3.388359 -1.52174,-5.048586 1.4694,-8.360626 4.82661,-5.34515 22.51199,-14.150739 39.93672,-19.885197 7.57182,-2.492029 13.76766,-4.828259 13.76766,-5.191665 0,-0.363094 -7.13942,-0.17114 -15.86601,0.427081 -32.52299,2.229152 -61.93924,-7.213589 -77.48296,-24.872267 -12.205,-13.865666 -14.72357,-31.883491 -4.02108,-28.766031 30.37527,8.847912 35.96509,9.708478 63.71538,9.80954 41.32206,0.150338 62.70542,-4.013875 83.62712,-16.28635 41.3216,-24.23989 46.5691,-25.28963 67.6079,-13.52438 11.7407,6.56597 14.4289,7.27959 24.3274,6.45873 10.5321,-0.87344 11.0548,-0.69535 9.7689,3.32684 -14.7074,45.994042 -9.8414,86.753594 13.3606,111.9248205 9.0527,9.8212577 10.3664,15.9980655 5.0247,23.6246375 -3.2803,4.683713 -10.3061,5.293884 -19.1254,1.661146 -2.0252,-0.834193 -4.4481,0.957386 -7.1654,5.298288 -5.324,8.503698 -14.9272,9.966494 -21.2031,3.2297 z"
       id="path4524"
       inkscape:connector-curvature="0"
       sodipodi:nodetypes="ccccssccccccssscccccscccccccccccccccccccccccccscccccscccscccccscccccccccccccscccscccccccccccsccccsccccccccccccccccccccccccccccccscccscsccssccsccsccscscccscccccccccscccccscssscccccccccscsccccccccccccscscczccccccccc" />
    <path
       style="opacity:1;fill:#808080;fill-opacity:1;fill-rule:nonzero;stroke:#000000;stroke-width:1.61515558;stroke-linecap:round;stroke-linejoin:round;stroke-miterlimit:4;stroke-dasharray:none;stroke-dashoffset:0;stroke-opacity:0;paint-order:stroke markers fill"
       d="m 1183.3166,-235.46999 c -5.8381,-2.31565 -8.8914,-8.86865 -8.4098,-18.04864 0.37,-7.11073 2.4471,-11.28152 6.8344,-13.74732 5.8518,-3.28896 12.456,-1.49275 16.1176,4.38365 1.7086,2.74262 2.1352,4.32586 2.4007,8.9122 0.3534,6.12151 -0.4275,9.55535 -3.1299,13.7628 -2.9177,4.54129 -9.0261,6.63625 -13.813,4.73731 z m 14.8141,-15.01515 c 2.2759,-2.27585 -0.8614,-4.79705 -4.3289,-3.47871 -2.0688,0.78656 -2.474,2.08815 -1.0833,3.47871 1.1013,1.10186 4.3109,1.10186 5.4122,0 z m -5.7139,-7.37637 c 3.2729,-2.29229 1.1113,-6.72585 -3.2785,-6.72585 -1.3777,0 -3.0905,0.53014 -3.8072,1.1787 -1.4785,1.33856 -1.7251,4.52396 -0.4439,5.80121 1.2108,1.21016 5.6572,1.06027 7.5337,-0.25397 z"
       id="path4526"
       inkscape:connector-curvature="0" />
    <path
       style="fill:#808080;stroke-width:0.28591526"
       d="m 961.25921,-120.67757 c -1.41539,-0.81701 -6.94746,-4.03439 -12.29439,-7.14984 -5.34627,-3.11554 -10.87907,-6.33122 -12.2944,-7.14616 -1.41468,-0.81538 -4.11665,-2.38679 -6.00382,-3.49304 l -3.43134,-2.0113 v -25.23049 -25.23051 l 4.43196,-2.57698 c 2.43762,-1.41739 5.65383,-3.28908 7.1478,-4.15927 2.40214,-1.39942 3.90852,-2.27154 7.00524,-4.05651 2.14468,-1.23629 13.02829,-7.58107 14.43828,-8.41737 0.86494,-0.51264 3.40355,-1.99648 5.6415,-3.29716 l 4.06958,-2.36482 3.79363,2.21042 c 6.27671,3.65725 7.26892,4.23604 13.51473,7.88652 3.30184,1.92996 8.25565,4.81461 11.00783,6.41039 2.75129,1.59569 7.13699,4.14492 9.74579,5.66467 l 4.7417,2.7634 0.1929,15.48703 c 0.1078,8.51805 0.1926,19.76694 0.1926,24.99761 v 9.51043 l -1.6435,0.97706 c -2.416,1.43596 -9.0744,5.33774 -16.22604,9.50888 -3.45903,2.01785 -7.38373,4.30852 -8.72051,5.09045 -1.33668,0.78162 -3.58778,2.08861 -5.00311,2.90369 -12.72384,7.54076 -9.35265,8.04363 -20.30026,1.7229 z m 4.36253,-25.23652 -0.0771,-17.36935 -3.66256,-2.14443 c -5.01168,-2.93422 -11.46029,-6.71351 -14.39203,-8.43448 -7.13629,-4.18971 -10.80963,-6.28689 -11.18046,-6.38264 -0.28523,-0.0771 -0.35466,3.54301 -0.35466,17.37837 0,16.37697 0,17.48253 0.50109,17.65767 0.27757,0.10253 1.326,0.68919 2.33434,1.30298 1.00832,0.61365 3.13141,1.85758 4.71716,2.76379 1.5865,0.90635 5.71473,3.29615 9.17457,5.31084 9.82901,5.72374 12.56343,7.28004 12.79705,7.28343 0.11562,0.002 0.18498,-7.81311 0.14644,-17.36618 z m 12.93582,15.11405 c 1.49398,-0.88114 2.94019,-1.73121 3.21392,-1.88918 1.69209,-0.9762 9.64016,-5.60463 13.51161,-7.86824 2.51628,-1.47112 5.57211,-3.24698 6.79091,-3.9465 l 2.2157,-1.27176 v -17.30751 c 0,-9.51923 0,-17.34269 -0.085,-17.38555 -0.077,-0.0386 -2.0692,1.08967 -4.50293,2.51686 -2.43377,1.42718 -4.81125,2.81689 -5.28307,3.08831 -0.47019,0.27137 -4.65316,2.71692 -9.2925,5.43452 -4.63853,2.7175 -8.91705,5.20368 -9.50599,5.52475 l -1.07234,0.58435 v 17.39788 17.39779 l 0.63988,-0.33688 c 0.35457,-0.18502 1.86555,-1.05761 3.35959,-1.93876 z m -6.86186,-40.96336 c 2.24027,-1.27216 4.36105,-2.50344 4.86057,-2.82282 0.63215,-0.40241 15.60618,-9.14318 19.29883,-11.26355 0.31611,-0.18116 1.3113,-0.75394 2.21559,-1.27416 0.9043,-0.52036 1.58034,-1.04997 1.50171,-1.17717 -0.12336,-0.19658 -1.34829,-0.94597 -4.00327,-2.44609 -0.31611,-0.17807 -2.95186,-1.71479 -5.86123,-3.41588 -2.90938,-1.70093 -7.21955,-4.21092 -9.57772,-5.57766 -2.35899,-1.36673 -5.53667,-3.21174 -7.06147,-4.10013 -1.52486,-0.88831 -2.94026,-1.60735 -3.14529,-1.59777 -0.20821,0.008 -1.62355,0.74931 -3.15228,1.64394 -3.38885,1.98362 -21.2508,12.37566 -22.45257,13.06331 -2.9904,1.71087 -3.78829,2.22175 -3.78829,2.42681 0,0.1326 0.54734,0.55506 1.21574,0.94012 3.37578,1.94415 12.4008,7.223 19.79916,11.58184 4.5607,2.6867 8.35582,4.89103 8.43446,4.89842 0.0848,0.008 0.85113,-0.38854 1.71606,-0.87921 z"
       id="path4543"
       inkscape:connector-curvature="0"
       sodipodi:nodetypes="cccccccsccccccsscccscccccccccccscccscccccccscscccccccccccccccccscccsccsc" />
  </g>
</svg>
